<?xml version="1.0" encoding="UTF-8"?>
<svg version="1.1" xmlns="http://www.w3.org/2000/svg" width="2560" height="1440">
<path d="M0 0 C844.8 0 1689.6 0 2560 0 C2560 475.2 2560 950.4 2560 1440 C1715.2 1440 870.4 1440 0 1440 C0 964.8 0 489.6 0 0 Z " fill="#8D70E6" transform="translate(0,0)"/>
<path d="M0 0 C3.53965406 1.17988469 3.72783892 1.76917246 5.4609375 4.91796875 C5.9252417 5.748125 6.3895459 6.57828125 6.86791992 7.43359375 C7.36525635 8.34238281 7.86259277 9.25117187 8.375 10.1875 C9.46073415 12.12974857 10.54802134 14.07112964 11.63671875 16.01171875 C12.47468994 17.510979 12.47468994 17.510979 13.32958984 19.04052734 C15.88383287 23.56589039 18.53138048 28.03390699 21.1875 32.5 C26.2332253 41.00634998 31.25097727 49.52865443 36.25 58.0625 C36.97281218 59.2960652 37.69563123 60.52962638 38.41845703 61.76318359 C41.6907265 67.34816424 44.96149557 72.93402211 48.23124695 78.52047729 C50.00784849 81.55560103 51.78500289 84.59040068 53.5625 87.625 C53.91337677 88.22405151 54.26425354 88.82310303 54.62576294 89.44030762 C60.44285102 99.36909188 66.30391292 109.27112022 72.1784668 119.16601562 C77.77844269 128.60663065 83.31391094 138.0839571 88.8359375 147.5703125 C91.54388019 152.2215072 94.26684405 156.86358692 97 161.5 C100.87320705 168.0722811 104.72127566 174.65897922 108.5625 181.25 C121.46106575 203.37992721 134.41005565 225.48128459 147.4519043 247.52709961 C153.13307005 257.13177471 158.79433467 266.7479595 164.4375 276.375 C164.79908203 276.99183655 165.16066406 277.6086731 165.53320312 278.24420166 C169.81963634 285.55802384 174.09614649 292.87751409 178.36157227 300.20361328 C184.53515327 310.80689594 190.76804632 321.37338186 197.03271484 331.9230957 C201.44995319 339.36763325 205.8329287 346.83114777 210.1875 354.3125 C214.79133873 362.22090246 219.41164247 370.11914019 224.0625 378 C224.84886841 379.33478394 224.84886841 379.33478394 225.65112305 380.6965332 C228.38701275 385.32598966 231.1760504 389.90237517 234.11499023 394.40625 C235 396 235 396 235 398 C80.56 398 -73.88 398 -233 398 C-228.92692064 389.85384128 -224.7969823 382.10497216 -220.0625 374.375 C-214.76655521 365.64299578 -209.57601694 356.86164568 -204.5 348 C-198.92792168 338.28093665 -193.21749318 328.6553662 -187.42724609 319.06494141 C-182.8817913 311.51792938 -178.4753603 303.90105158 -174.12939453 296.23779297 C-171.3768942 291.39000871 -168.57940987 286.57834587 -165.6875 281.8125 C-161.64208403 275.14484763 -157.75739227 268.38862717 -153.875 261.625 C-148.84065113 252.86023971 -143.72441205 244.15278261 -138.5 235.5 C-132.78038342 226.02462843 -127.20667792 216.47452324 -121.69750977 206.87548828 C-116.51370364 197.85624541 -111.22342854 188.90320317 -105.90820312 179.9609375 C-101.02116187 171.73513046 -96.18166167 163.48298366 -91.36791992 155.21411133 C-83.94182756 142.45856948 -76.47027591 129.72969787 -69 117 C-68.5157959 116.1745166 -68.0315918 115.3490332 -67.53271484 114.49853516 C-63.49566378 107.61709237 -59.44441895 100.74445069 -55.3671875 93.88671875 C-48.67676235 82.6292408 -42.02379783 71.35531282 -35.5 60 C-23.92030563 39.85029134 -11.98668918 19.90970911 0 0 Z " fill="#8060EB" transform="translate(2265,1042)"/>
<path d="M0 0 C9.57 0 19.14 0 29 0 C33.6571256 19.55992751 37.69597958 39.1909847 41.59133911 58.91363525 C43.64512339 69.29290263 45.81183655 79.64830367 48 90 C49.63832565 85.39520828 50.78181633 80.76858985 51.77172852 75.9909668 C51.93622498 75.21141129 52.10072144 74.43185577 52.27020264 73.62867737 C52.62475701 71.9462805 52.97771248 70.26354603 53.32922554 68.58051109 C53.88499953 65.92005053 54.44520506 63.26055729 55.00657654 60.60127258 C56.39849651 54.00319356 57.78302622 47.4035685 59.1673584 40.80389404 C60.34016196 35.21381489 61.51594626 29.62437988 62.69590569 24.03580666 C63.24899175 21.41005017 63.79759606 18.78338209 64.34608459 16.15666199 C64.68305324 14.55841402 65.0202352 12.960211 65.35766602 11.36206055 C65.5098912 10.62702301 65.66211639 9.89198547 65.81895447 9.13467407 C66.88613991 4.11386009 66.88613991 4.11386009 68 3 C70.07262076 2.91232888 72.14820294 2.89304127 74.22265625 2.90234375 C75.48271484 2.90556641 76.74277344 2.90878906 78.04101562 2.91210938 C79.38151109 2.92046597 80.72200588 2.92893093 82.0625 2.9375 C83.40689942 2.9425134 84.7513006 2.94707658 86.09570312 2.95117188 C89.39717941 2.96300512 92.69856803 2.97949029 96 3 C98.94561212 16.10652479 101.86673079 29.21451765 104.5625 42.375 C106.27768179 50.7434884 108.13833882 59.06199508 110.21313477 67.34912109 C112.13922171 75.16940966 113.55904237 83.07903259 115 91 C115.38369751 89.15668091 115.38369751 89.15668091 115.77514648 87.27612305 C121.83208514 58.18029941 127.90564965 29.08801037 134 0 C143.57 0 153.14 0 163 0 C162.01 3.63 161.02 7.26 160 11 C159.39889294 13.20825796 158.79802216 15.41658026 158.19750977 17.625 C142.32590986 75.97765352 142.32590986 75.97765352 134.9375 102.5 C134.56082687 103.85593262 134.56082687 103.85593262 134.17654419 105.23925781 C133.4832777 107.73307105 132.78716201 110.22606712 132.08984375 112.71875 C131.78957779 113.79981018 131.78957779 113.79981018 131.48324585 114.90270996 C130.11544969 119.76910062 130.11544969 119.76910062 129 122 C119.43 122 109.86 122 100 122 C97.20732322 111.1395903 94.71253825 100.24758448 92.35546875 89.28515625 C88.74303556 72.48481296 85.00684194 55.71088784 81 39 C80.18635477 42.6455786 79.37428295 46.29150629 78.5625 49.9375 C78.30098145 51.11086914 78.03946289 52.28423828 77.77001953 53.49316406 C76.0731488 61.12276161 74.39748771 68.7566536 72.73828125 76.39453125 C72.14607737 79.11430566 71.55363602 81.83402825 70.96115112 84.55374146 C70.57506083 86.32973268 70.19020298 88.10599235 69.80667114 89.88253784 C67.47594142 100.67660487 64.93396186 111.35277189 62 122 C52.43 122 42.86 122 33 122 C32.113125 118.74125 31.22625 115.4825 30.3125 112.125 C27.76840128 102.7892518 25.19430341 93.46230452 22.59570312 84.14160156 C22.01415423 82.05088562 21.43614726 79.95922572 20.859375 77.8671875 C19.00050593 71.13388099 17.12186516 64.40739906 15.1875 57.6953125 C11.53881295 45.03254139 7.97069466 32.35439703 4.5625 19.625 C4.22049561 18.35366211 3.87849121 17.08232422 3.52612305 15.77246094 C3.2094165 14.58168945 2.89270996 13.39091797 2.56640625 12.1640625 C2.28740479 11.11686035 2.00840332 10.0696582 1.72094727 8.99072266 C1.00587653 6.02437777 0.50163323 3.00979937 0 0 Z " fill="#FDFDFE" transform="translate(861,773)"/>
<path d="M0 0 C9.35302165 5.21849055 14.97221506 13.38190508 18.171875 23.50390625 C22.7950301 39.95113074 21.95924326 58.65708062 13.609375 73.69140625 C7.86231006 82.44883854 1.52485408 87.70700315 -8.4375 90.890625 C-20.49537458 93.22095892 -31.40996131 91.13684871 -41.640625 84.31640625 C-41.640625 98.17640625 -41.640625 112.03640625 -41.640625 126.31640625 C-50.220625 126.31640625 -58.800625 126.31640625 -67.640625 126.31640625 C-67.640625 84.40640625 -67.640625 42.49640625 -67.640625 -0.68359375 C-60.710625 -0.68359375 -53.780625 -0.68359375 -46.640625 -0.68359375 C-45.980625 1.62640625 -45.320625 3.93640625 -44.640625 6.31640625 C-42.33368921 5.1657178 -40.0307209 4.00777022 -37.73046875 2.84375 C-36.69019531 2.31910156 -35.64992188 1.79445313 -34.578125 1.25390625 C-33.53527344 0.72667969 -32.49242187 0.19945312 -31.41796875 -0.34375 C-22.26571648 -4.75897156 -9.2316669 -4.01437637 0 0 Z " fill="#FDFDFE" transform="translate(1515.640625,805.68359375)"/>
<path d="M0 0 C1.13163574 0.00628418 1.13163574 0.00628418 2.28613281 0.01269531 C11.94360232 0.2094448 17.82170238 3.45072131 24.625 10.3125 C25.20765625 9.92578125 25.7903125 9.5390625 26.390625 9.140625 C39.11996736 1.05469055 52.60699532 -2.27201713 67.53125 0.9375 C73.86706878 3.36767707 78.70489761 8.44111286 81.69894409 14.47782898 C82.83386613 17.95184237 82.89004993 21.15377636 82.85205078 24.76489258 C82.85234283 25.4971405 82.85263489 26.22938843 82.85293579 26.98382568 C82.8515482 29.39168359 82.83601418 31.79922775 82.8203125 34.20703125 C82.81658033 35.88140189 82.81373432 37.55577471 82.81173706 39.23014832 C82.80411663 43.62781856 82.78448184 48.02535579 82.7623291 52.42297363 C82.74183638 56.91412558 82.73272802 61.40529911 82.72265625 65.89648438 C82.70123439 74.70189063 82.66606525 83.50716342 82.625 92.3125 C74.375 92.3125 66.125 92.3125 57.625 92.3125 C57.61041748 90.4051709 57.59583496 88.4978418 57.58081055 86.53271484 C57.5290837 80.21820955 57.46377752 73.90395785 57.38928509 67.58968163 C57.34463123 63.76277157 57.30536445 59.93596675 57.27856445 56.10888672 C57.25248125 52.41284241 57.21204424 48.71720413 57.16181374 45.0214119 C57.14517875 43.61413259 57.13364352 42.20678311 57.12738609 40.7994194 C57.11770919 38.82238299 57.08792214 36.84547641 57.05737305 34.86865234 C57.04626999 33.74502289 57.03516693 32.62139343 57.02372742 31.4637146 C56.56713135 27.85515366 55.4950513 25.41690123 53.625 22.3125 C50.6217612 20.8108806 47.84122149 21.10235552 44.5 21.0625 C42.57800781 21.02382813 42.57800781 21.02382813 40.6171875 20.984375 C35.83088612 21.1947349 35.83088612 21.1947349 28.625 24.3125 C28.295 47.0825 27.965 69.8525 27.625 93.3125 C19.045 93.3125 10.465 93.3125 1.625 93.3125 C1.6156543 91.30905518 1.60630859 89.30561035 1.59667969 87.24145508 C1.56288394 80.61558866 1.5073208 73.99003286 1.44109726 67.36441517 C1.40161946 63.34798888 1.3694327 59.33178192 1.35400391 55.31518555 C1.33883894 51.43752673 1.30439731 47.56047089 1.25669098 43.68308067 C1.24187533 42.20519952 1.23395887 40.72723229 1.23311615 39.24927711 C1.23074507 37.17570652 1.20365951 35.10380044 1.17089844 33.03051758 C1.16201599 31.85137283 1.15313354 30.67222809 1.14398193 29.45735168 C0.51653319 25.65522851 -0.62078986 23.97341372 -3.375 21.3125 C-6.19529377 20.84855557 -8.32796234 20.698123 -11.125 20.8125 C-12.14207031 20.80863281 -12.14207031 20.80863281 -13.1796875 20.8046875 C-18.79778138 20.91149537 -21.7456672 22.2015002 -27.375 24.3125 C-27.705 46.7525 -28.035 69.1925 -28.375 92.3125 C-36.955 92.3125 -45.535 92.3125 -54.375 92.3125 C-54.375 62.6125 -54.375 32.9125 -54.375 2.3125 C-47.445 2.3125 -40.515 2.3125 -33.375 2.3125 C-31.375 8.3125 -31.375 8.3125 -31.375 10.3125 C-30.21742187 9.75820313 -29.05984375 9.20390625 -27.8671875 8.6328125 C-26.32821122 7.90086036 -24.78914388 7.16909964 -23.25 6.4375 C-22.48945312 6.07269531 -21.72890625 5.70789063 -20.9453125 5.33203125 C-13.82436042 1.95571777 -7.91385679 -0.05950268 0 0 Z " fill="#FDFDFE" transform="translate(1344.375,802.6875)"/>
<path d="M0 0 C1.20970459 0.00523682 2.41940918 0.01047363 3.66577148 0.01586914 C4.97094727 0.0190918 6.27612305 0.02231445 7.62084961 0.02563477 C9.00952213 0.03399138 10.39819401 0.04245634 11.78686523 0.05102539 C13.17944179 0.05603873 14.57202005 0.06060193 15.96459961 0.06469727 C19.38456394 0.07653105 22.80444367 0.09301659 26.22436523 0.11352539 C29.2356979 7.40093024 31.87990883 14.77279086 34.41186523 22.23852539 C39.0688967 35.854996 43.85261496 49.42514517 48.66186523 62.98852539 C49.39968602 65.07168611 50.13747909 67.15485665 50.87524414 69.23803711 C54.15108768 78.48253152 57.43788186 87.7227242 60.76342773 96.94946289 C61.53284391 99.09111742 62.30180782 101.23293369 63.07058716 103.37481689 C63.76810299 105.31143301 64.47249853 107.24544972 65.17724609 109.17944336 C65.58595947 110.31784668 65.99467285 111.45625 66.41577148 112.62915039 C66.76841064 113.60142578 67.1210498 114.57370117 67.484375 115.57543945 C68.22436523 118.11352539 68.22436523 118.11352539 68.22436523 122.11352539 C58.98436523 122.11352539 49.74436523 122.11352539 40.22436523 122.11352539 C38.90436523 118.05040039 37.58436523 113.98727539 36.22436523 109.80102539 C35.80670898 108.52316162 35.38905273 107.24529785 34.95874023 105.92871094 C34.47147461 104.41724487 34.47147461 104.41724487 33.97436523 102.87524414 C33.63920898 101.84359131 33.30405273 100.81193848 32.95874023 99.74902344 C32.22436523 97.11352539 32.22436523 97.11352539 32.22436523 94.11352539 C18.36436523 94.44352539 4.50436523 94.77352539 -9.77563477 95.11352539 C-12.41563477 104.02352539 -15.05563477 112.93352539 -17.77563477 122.11352539 C-27.01563477 122.11352539 -36.25563477 122.11352539 -45.77563477 122.11352539 C-43.27699062 113.99293192 -40.75740062 105.94029708 -37.96313477 97.92602539 C-37.58987061 96.85143066 -37.21660645 95.77683594 -36.83203125 94.66967773 C-29.83432384 74.60396252 -22.61597064 54.61497729 -15.44459534 34.61087036 C-14.74911839 32.6703306 -14.05414873 30.72961 -13.359375 28.78881836 C-12.54762277 26.52177383 -11.73474808 24.25513069 -10.92041016 21.98901367 C-8.71355579 15.82597517 -6.60927996 9.63931691 -4.59667969 3.40991211 C-3.42763153 0.14019251 -3.42763153 0.14019251 0 0 Z " fill="#FDFDFE" transform="translate(798.775634765625,772.886474609375)"/>
<path d="M0 0 C9.9 0 19.8 0 30 0 C32.08634766 5.98640625 32.08634766 5.98640625 34.21484375 12.09375 C43.3259128 38.22477092 52.44664985 64.35202144 61.6875 90.4375 C62.21970657 91.94086914 62.21970657 91.94086914 62.76266479 93.47460938 C63.76133513 96.29463177 64.76121772 99.1142204 65.76171875 101.93359375 C66.04827332 102.7423143 66.33482788 103.55103485 66.63006592 104.38426208 C66.89998352 105.1436055 67.16990112 105.90294891 67.44799805 106.68530273 C67.70374603 107.4049118 67.95949402 108.12452087 68.22299194 108.86593628 C69.0182071 111.05000605 69.8593925 113.21314745 70.70239258 115.37915039 C72 119 72 119 72 122 C62.43 122 52.86 122 43 122 C40.36 113.09 37.72 104.18 35 95 C21.14 94.67 7.28 94.34 -7 94 C-7.66 97.3 -8.32 100.6 -9 104 C-9.46050273 105.65035161 -9.95149841 107.29349537 -10.5078125 108.9140625 C-10.7464502 109.61998535 -10.98508789 110.3259082 -11.23095703 111.05322266 C-11.52599121 111.90190918 -11.82102539 112.7505957 -12.125 113.625 C-13.07375 116.38875 -14.0225 119.1525 -15 122 C-23.91 122 -32.82 122 -42 122 C-41.19164685 117.95823423 -40.20513993 114.41969902 -38.875 110.54296875 C-38.65645355 109.90410736 -38.4379071 109.26524597 -38.21273804 108.60702515 C-37.47876577 106.46592511 -36.73962122 104.32665473 -36 102.1875 C-35.47216672 100.65421593 -34.94433472 99.12093141 -34.41650391 97.58764648 C-24.78274087 69.66416471 -14.83983913 41.84510328 -4.86669922 14.04125977 C-4.50979004 13.04537842 -4.15288086 12.04949707 -3.78515625 11.0234375 C-3.33474976 9.76926025 -3.33474976 9.76926025 -2.87524414 8.48974609 C-1.88435648 5.67103693 -0.94482695 2.83448086 0 0 Z " fill="#FDFDFE" transform="translate(1208,773)"/>
<path d="M0 0 C2.63869234 0.35135717 3.71937939 0.64414834 5.39697266 2.77148438 C5.8151123 3.53783203 6.23325195 4.30417969 6.6640625 5.09375 C7.37912964 6.3780188 7.37912964 6.3780188 8.10864258 7.68823242 C8.60904053 8.61611572 9.10943848 9.54399902 9.625 10.5 C10.70345113 12.444552 11.7828899 14.38855656 12.86328125 16.33203125 C13.39646973 17.29963379 13.9296582 18.26723633 14.47900391 19.26416016 C16.52527965 22.94482886 18.65876697 26.56902972 20.8125 30.1875 C27.64193342 41.73332371 34.30627924 53.37520492 41 65 C48.57931885 78.16031295 56.16780741 91.31502054 63.8125 104.4375 C64.40554932 105.45666504 64.99859863 106.47583008 65.60961914 107.52587891 C66.15739014 108.4647998 66.70516113 109.4037207 67.26953125 110.37109375 C67.75010986 111.19536865 68.23068848 112.01964355 68.72583008 112.86889648 C69.76699718 114.61029285 70.87456125 116.31184188 72 118 C72.125 120.6875 72.125 120.6875 72 123 C68.4597564 123.26275596 64.92201867 123.42160329 61.375 123.5625 C60.37597656 123.63791016 59.37695312 123.71332031 58.34765625 123.79101562 C51.13419569 124.0059863 51.13419569 124.0059863 48.21386719 121.41577148 C46.58354 119.02577306 45.29706517 116.58621864 44 114 C42.80861748 111.94281656 41.61025182 109.88966707 40.40625 107.83984375 C39.43942035 106.13640552 38.47268823 104.43290733 37.51013184 102.72705078 C35.75910919 99.62493694 33.99594846 96.52972426 32.234375 93.43359375 C31.87813049 92.8068576 31.52188599 92.18012146 31.15484619 91.53439331 C21.68082059 74.87938569 11.91052937 58.39832178 2 42 C-0.72535098 45.28097282 -3.03219711 48.55856932 -5.14453125 52.26171875 C-6.02588745 53.79868408 -6.02588745 53.79868408 -6.92504883 55.36669922 C-7.54790771 56.46256348 -8.1707666 57.55842773 -8.8125 58.6875 C-9.80462883 60.4211094 -10.7967654 62.15471442 -11.78935242 63.88806152 C-12.82427609 65.69635732 -13.85744157 67.50565087 -14.890625 69.31494141 C-16.99845842 73.00205898 -19.12221636 76.67983654 -21.25 80.35546875 C-21.59286545 80.94802963 -21.9357309 81.54059052 -22.28898621 82.15110779 C-23.94233091 85.00830912 -25.59642064 87.86507684 -27.2512207 90.72143555 C-27.84507568 91.74922119 -28.43893066 92.77700684 -29.05078125 93.8359375 C-29.57325439 94.73876465 -30.09572754 95.6415918 -30.6340332 96.57177734 C-31.82469013 98.68835891 -32.92331944 100.82429373 -34 103 C-33.41641724 102.97113205 -32.83283447 102.9422641 -32.23156738 102.91252136 C-26.13265037 102.62390581 -20.03568012 102.42848591 -13.93164062 102.28588867 C-11.65740146 102.22068389 -9.38370388 102.13208732 -7.11132812 102.01928711 C11.3298111 101.12710415 11.3298111 101.12710415 15.81005859 104.26959229 C18.94742393 107.71405352 20.47226161 111.61945102 22 116 C22.99 117.485 22.99 117.485 24 119 C23.505 120.98 23.505 120.98 23 123 C-7.03 123 -37.06 123 -68 123 C-69.10490777 118.58036891 -69.02251786 118.32822683 -66.859375 114.68359375 C-66.37162598 113.84723389 -65.88387695 113.01087402 -65.38134766 112.14916992 C-64.84300293 111.25431885 -64.3046582 110.35946777 -63.75 109.4375 C-63.20005371 108.50075439 -62.65010742 107.56400879 -62.08349609 106.59887695 C-60.94485982 104.66012231 -59.80142075 102.72418078 -58.65332031 100.79101562 C-56.71994643 97.52723384 -54.82299904 94.24363103 -52.9309082 90.95581055 C-48.93611804 84.01701911 -44.89462168 77.10536106 -40.85498047 70.19262695 C-35.86367814 61.65057932 -30.89536489 53.09743846 -26 44.5 C-21.58408464 36.74589395 -17.12063978 29.02066885 -12.625 21.3125 C-12.05394531 20.3328125 -11.48289062 19.353125 -10.89453125 18.34375 C-7.307129 12.20231898 -3.67359375 6.09025684 0 0 Z " fill="#FDFDFE" transform="translate(1254,552)"/>
<path d="M0 0 C1 1 1 1 1.11352539 2.85766602 C1.10567017 4.04380493 1.10567017 4.04380493 1.09765625 5.25390625 C1.09282227 6.53491211 1.09282227 6.53491211 1.08789062 7.84179688 C1.07532227 9.18854492 1.07532227 9.18854492 1.0625 10.5625 C1.05798828 11.46419922 1.05347656 12.36589844 1.04882812 13.29492188 C1.03700225 15.53001314 1.0205222 17.76497437 1 20 C-3.47533802 19.49335796 -7.84575709 18.84502137 -12.26171875 17.95703125 C-18.13661912 16.86720935 -23.84883976 16.6678439 -29.8125 16.6875 C-30.80958984 16.67138672 -31.80667969 16.65527344 -32.83398438 16.63867188 C-39.33649704 16.63434552 -43.49660387 17.46813389 -48.859375 21.34375 C-50.51618833 23.74953374 -50.32761285 25.61280186 -50.25 28.5 C-50.23453125 29.4590625 -50.2190625 30.418125 -50.203125 31.40625 C-50.09597246 34.11407394 -50.09597246 34.11407394 -49 37 C-46.7058114 38.12667599 -46.7058114 38.12667599 -44 39 C-42.31153701 39.70603477 -40.62412319 40.4145814 -38.9375 41.125 C-35.03212905 42.76834916 -31.11465032 44.34804175 -27.15625 45.859375 C0.83241871 56.61165115 0.83241871 56.61165115 7.375 70.625 C10.74570884 79.98650648 9.62991378 89.64597635 6.45703125 98.91796875 C1.20142125 110.03506336 -8.48038778 115.76574812 -19.41015625 120.203125 C-37.53071262 125.77868081 -58.59236698 121.80254434 -76 116 C-76 109.4 -76 102.8 -76 96 C-74.494375 96.28875 -72.98875 96.5775 -71.4375 96.875 C-47.37227928 101.86452526 -47.37227928 101.86452526 -24 97 C-21.14445674 94.64417681 -19.21268125 92.77466816 -18.76171875 89.01171875 C-18.72498047 87.86123047 -18.72498047 87.86123047 -18.6875 86.6875 C-18.65011719 85.92824219 -18.61273437 85.16898438 -18.57421875 84.38671875 C-19.18601665 80.9572828 -20.54359307 79.45243859 -23 77 C-25.3545462 75.71596439 -27.53066528 74.67663779 -30 73.6875 C-30.68989014 73.39609131 -31.37978027 73.10468262 -32.09057617 72.80444336 C-36.06803136 71.14000557 -40.08110355 69.58111672 -44.11328125 68.0546875 C-57.84508816 62.82567111 -69.50676118 58.15854241 -76 44 C-79.47370474 35.6315295 -79.21269977 25.32186191 -75.90625 16.91796875 C-71.31652246 7.20436434 -63.92899785 0.80170605 -54 -3 C-36.48919174 -8.66994962 -17.07916577 -6.42889233 0 0 Z " fill="#FDFDFE" transform="translate(1109,776)"/>
<path d="M0 0 C8.91 0 17.82 0 27 0 C35.99434133 28.8250024 35.99434133 28.8250024 39.24560547 40.05224609 C41.68005415 48.41441785 44.3500645 56.70415381 47 65 C48.12770794 61.0841083 49.25197578 57.16723744 50.375 53.25 C50.72570557 52.02692139 51.07641113 50.80384277 51.43774414 49.54370117 C53.56903331 42.09239788 55.66293309 34.6315672 57.72265625 27.16015625 C57.94896729 26.340242 58.17527832 25.52032776 58.40844727 24.67556763 C59.53047893 20.60880544 60.64853836 16.54100701 61.76123047 12.47167969 C62.17272835 10.97717961 62.58434364 9.48271185 62.99609375 7.98828125 C63.18430191 7.29477066 63.37251007 6.60126007 63.56642151 5.88673401 C64.88657097 1.11342903 64.88657097 1.11342903 66 0 C67.92667507 -0.08748207 69.85651861 -0.10697334 71.78515625 -0.09765625 C72.95498047 -0.09443359 74.12480469 -0.09121094 75.33007812 -0.08789062 C76.56177734 -0.07951172 77.79347656 -0.07113281 79.0625 -0.0625 C80.91584961 -0.05573242 80.91584961 -0.05573242 82.80664062 -0.04882812 C85.87114117 -0.03699608 88.93554721 -0.02051173 92 0 C91.24735561 4.80253089 89.5810294 9.18078428 87.90234375 13.71875 C87.5926918 14.56433975 87.28303986 15.4099295 86.96400452 16.28114319 C85.95895294 19.02216869 84.94843428 21.76113924 83.9375 24.5 C83.24007491 26.39699542 82.54280973 28.29404963 81.84570312 30.19116211 C78.03846017 40.53674391 74.20621897 50.87158279 70.2265625 61.15234375 C68.5731496 65.45719737 66.96887967 69.77906443 65.37445068 74.10600281 C64.04771432 77.70541094 62.71469553 81.30248325 61.38183594 84.89962769 C60.71964972 86.6920786 60.0603849 88.48561196 59.40429688 90.28030396 C48.72519184 119.48029652 48.72519184 119.48029652 36.6875 126.3125 C26.32842629 131.09361094 16.52296088 129.32304028 6 126 C6 120.39 6 114.78 6 109 C9.7434375 108.87625 9.7434375 108.87625 13.5625 108.75 C21.96496907 108.30564545 21.96496907 108.30564545 29 104 C31.987471 99.64868355 33.64586432 95.27802641 34 90 C33.12976681 86.55575301 31.80214285 83.31951209 30.46875 80.03125 C30.08576248 79.05394928 29.70277496 78.07664856 29.30818176 77.06973267 C28.05222675 73.87433369 26.77616871 70.68737329 25.5 67.5 C24.63168585 65.29985691 23.76475255 63.09916838 22.89916992 60.89794922 C20.70498923 55.3278649 18.49458403 49.76440751 16.27728271 44.20349121 C13.27400514 36.67111548 10.28317393 29.13380535 7.29492188 21.59545898 C6.32578821 19.15841536 5.34908658 16.7245154 4.37109375 14.29101562 C3.78502232 12.821668 3.19907697 11.35227007 2.61328125 9.8828125 C2.34546341 9.22262115 2.07764557 8.56242981 1.80171204 7.88223267 C0.68954991 5.07842607 0 3.04980854 0 0 Z " fill="#FDFCFE" transform="translate(1715,805)"/>
<path d="M0 0 C0.8775293 0.00580078 1.75505859 0.01160156 2.65917969 0.01757812 C8.9458375 0.1436381 14.24863606 1.02445443 20.125 3.375 C20.125 8.985 20.125 14.595 20.125 20.375 C18.65546875 20.40078125 17.1859375 20.4265625 15.671875 20.453125 C13.73955364 20.5094062 11.80726312 20.56675354 9.875 20.625 C8.90691406 20.63917969 7.93882813 20.65335938 6.94140625 20.66796875 C1.34684192 20.77270193 1.34684192 20.77270193 -3.484375 23.296875 C-6.11847013 27.23321941 -5.99230726 30.39522049 -5.9375 35 C-5.916875 37.43375 -5.89625 39.8675 -5.875 42.375 C2.045 42.705 9.965 43.035 18.125 43.375 C18.125 49.315 18.125 55.255 18.125 61.375 C9.875 61.375 1.625 61.375 -6.875 61.375 C-6.875 84.805 -6.875 108.235 -6.875 132.375 C-15.125 132.375 -23.375 132.375 -31.875 132.375 C-31.875 108.945 -31.875 85.515 -31.875 61.375 C-36.495 61.375 -41.115 61.375 -45.875 61.375 C-45.875 56.095 -45.875 50.815 -45.875 45.375 C-38.945 44.385 -38.945 44.385 -31.875 43.375 C-31.92720703 41.59996094 -31.92720703 41.59996094 -31.98046875 39.7890625 C-32.21234662 28.60687064 -32.32138414 18.47613618 -24.875 9.375 C-17.671106 1.89544679 -10.14778805 -0.162241 0 0 Z " fill="#FEFEFE" transform="translate(1690.875,762.625)"/>
<path d="M0 0 C0.99 0 1.98 0 3 0 C3.41137207 0.72251953 3.82274414 1.44503906 4.24658203 2.18945312 C12.18887701 16.1319571 20.16702559 30.05041809 28.27001953 43.90039062 C31.20570692 48.91949628 34.12564617 53.94552186 37 59 C40.47560151 65.10997463 44.01587081 71.18101085 47.5625 77.25 C54.44931356 89.03717102 61.27719042 100.85770257 68.09130859 112.68701172 C70.67063062 117.16403908 73.25175229 121.64002573 75.83422852 126.11523438 C77.09809416 128.30698711 78.36033726 130.49967639 79.62084961 132.69335938 C82.51507927 137.72519263 85.43106428 142.73971176 88.421875 147.71484375 C88.94426758 148.59148682 89.46666016 149.46812988 90.00488281 150.37133789 C90.97306895 151.9926228 91.95100074 153.60814374 92.94042969 155.21655273 C93.36227539 155.92626221 93.78412109 156.63597168 94.21875 157.3671875 C94.7746582 158.28153564 94.7746582 158.28153564 95.34179688 159.21435547 C96 161 96 161 95 165 C87.74 165 80.48 165 73 165 C72.00742188 163.2571875 71.01484375 161.514375 69.9921875 159.71875 C62.7928138 147.09105746 55.55966737 134.4858294 48.2199707 121.93896484 C42.06463149 111.41304776 35.97742889 100.84815833 29.89111328 90.28222656 C26.14348395 83.77782059 22.39095039 77.27624205 18.63842773 70.7746582 C15.43467538 65.22313708 12.23415423 59.66979203 9.0390625 54.11328125 C8.38808594 52.98229004 7.73710938 51.85129883 7.06640625 50.68603516 C5.78905422 48.46641112 4.51297692 46.24605295 3.23828125 44.02490234 C0.55899564 39.36985875 -2.1361075 34.73464375 -4.9765625 30.17578125 C-5.6264917 29.12813599 -5.6264917 29.12813599 -6.28955078 28.05932617 C-7.40003407 26.28474789 -8.52733363 24.52072175 -9.65625 22.7578125 C-11 20 -11 20 -10.96484375 18.0625 C-9.48835559 14.9062824 -7.81472574 11.88324596 -6.0625 8.875 C-5.70220703 8.24207031 -5.34191406 7.60914063 -4.97070312 6.95703125 C-3.47924216 4.36963488 -2.12102027 2.12102027 0 0 Z " fill="#FDFDFE" transform="translate(1279,510)"/>
<path d="M0 0 C8.25 0 16.5 0 25 0 C25.02505615 3.22040039 25.0501123 6.44080078 25.07592773 9.75878906 C25.15932906 20.38788213 25.24802434 31.01692625 25.33933926 41.64595413 C25.39455103 48.09158869 25.44796835 54.53722781 25.49731445 60.98291016 C25.5449836 67.20098607 25.59732751 73.41900653 25.65294075 79.6370163 C25.6733527 82.0117022 25.6920677 84.3864033 25.70907402 86.76111603 C25.73314353 90.08201095 25.76319489 93.40280107 25.79467773 96.72363281 C25.80331093 98.20285469 25.80331093 98.20285469 25.81211853 99.71195984 C25.82190735 100.61777298 25.83169617 101.52358612 25.84178162 102.45684814 C25.84823417 103.24221577 25.85468672 104.02758339 25.8613348 104.83675003 C25.95633491 107.33528219 25.95633491 107.33528219 27 111 C30.96 111.33 34.92 111.66 39 112 C39 117.61 39 123.22 39 129 C33.72226495 131.11109402 30.22748746 131.36637745 24.6875 131.375 C23.87087891 131.39949219 23.05425781 131.42398438 22.21289062 131.44921875 C16.31432789 131.47741905 11.93614013 130.28314486 7 127 C1.0884383 121.0884383 -0.33923538 114.89384068 -0.3732605 106.83100891 C-0.36247467 105.78084091 -0.35168884 104.73067291 -0.34057617 103.64868164 C-0.34101425 102.52599884 -0.34145233 101.40331604 -0.34190369 100.24661255 C-0.33982053 96.55094769 -0.31651098 92.85574146 -0.29296875 89.16015625 C-0.28737114 86.591835 -0.28310182 84.02351054 -0.28010559 81.45518494 C-0.26983757 75.39565978 -0.24621469 69.33632273 -0.21605712 63.27686828 C-0.18245595 56.3748048 -0.16601279 49.47273325 -0.15097082 42.57060826 C-0.11966321 28.38030345 -0.06467424 14.19019103 0 0 Z " fill="#FEFEFE" transform="translate(1553,765)"/>
<path d="M0 0 C8.58 0 17.16 0 26 0 C26 30.03 26 60.06 26 91 C17.42 91 8.84 91 0 91 C0 60.97 0 30.94 0 0 Z " fill="#FBFBFE" transform="translate(1607,805)"/>
<path d="M0 0 C5.97432613 4.40962167 9.02505647 8.5983095 10.625 15.9375 C11.75861064 28.13899663 12.13430833 41.01554851 4.1875 51 C-0.05993147 54.21147258 -3.76446076 55.24176516 -9.0625 55.3125 C-10.49142578 55.35503906 -10.49142578 55.35503906 -11.94921875 55.3984375 C-15.375 54.9375 -15.375 54.9375 -25.375 50.9375 C-25.375 35.0975 -25.375 19.2575 -25.375 2.9375 C-15.99177115 -0.81579154 -9.62456273 -3.02995493 0 0 Z " fill="#977DE8" transform="translate(1499.375,823.0625)"/>
<path d="M0 0 C2.29296875 0.18676758 2.29296875 0.18676758 5 1 C6.73828125 3.15112305 6.73828125 3.15112305 8.3125 6.01171875 C8.90595215 7.06786377 9.4994043 8.12400879 10.11083984 9.2121582 C10.7342627 10.359021 11.35768555 11.50588379 12 12.6875 C12.66557105 13.88151883 13.33307735 15.07446081 14.00244141 16.26635742 C15.36324283 18.69098572 16.71740422 21.11913591 18.06738281 23.54980469 C20.75735691 28.3520677 23.55592706 33.08525483 26.375 37.8125 C27.44070388 39.60901938 28.50579231 41.40590398 29.5703125 43.203125 C30.11977539 44.13060547 30.66923828 45.05808594 31.23535156 46.01367188 C34.58832992 51.68794294 37.91858145 57.37555484 41.25 63.0625 C41.60753357 63.67276031 41.96506714 64.28302063 42.33343506 64.91177368 C44.15936421 68.02845292 45.98503106 71.14528568 47.81054688 74.26220703 C49.96140075 77.93441115 52.1133245 81.60598736 54.265625 85.27734375 C54.61530838 85.87383224 54.96499176 86.47032074 55.32527161 87.08488464 C56.73692252 89.49281072 58.14862358 91.90070739 59.56039429 94.30856323 C63.11295508 100.36766041 66.66512191 106.42698358 70.21311951 112.48875427 C77.50625933 124.94897108 84.81738902 137.3976167 92.1875 149.8125 C98.30110482 160.11144683 104.35702448 170.44245249 110.3828125 180.79296875 C114.34598548 187.59900244 118.32813349 194.39386302 122.3125 201.1875 C122.66835175 201.79430603 123.02420349 202.40111206 123.39083862 203.02630615 C125.20262838 206.1157704 127.01459218 209.20513252 128.82666016 212.29443359 C132.03234269 217.75984483 135.23637859 223.22622131 138.44052124 228.6925354 C140.21027838 231.71173078 141.98014478 234.73086211 143.75 237.75 C144.45833386 238.95833303 145.16666719 240.16666636 145.875 241.375 C146.225625 241.973125 146.57625 242.57125 146.9375 243.1875 C148 245 149.0625 246.8125 150.125 248.625 C150.65092995 249.52217239 150.65092995 249.52217239 151.18748474 250.43746948 C151.89587416 251.64590148 152.60425835 252.85433654 153.31263733 254.06277466 C155.08256979 257.08212354 156.85259272 260.10141931 158.62280273 263.12060547 C161.82114542 268.57574994 165.01882473 274.03127772 168.21313477 279.48878479 C169.99581038 282.53445116 171.7790376 285.5797943 173.5625 288.625 C173.91407166 289.22535065 174.26564331 289.82570129 174.62786865 290.44424438 C179.76284769 299.21044403 184.93446273 307.95405462 190.125 316.6875 C195.33936711 325.46152811 200.48131236 334.27321429 205.5625 343.125 C210.55765152 351.82521251 215.63855809 360.46737563 220.8125 369.0625 C221.74376709 370.60973755 221.74376709 370.60973755 222.69384766 372.18823242 C223.89437283 374.18189879 225.09505128 376.17547287 226.29589844 378.16894531 C228.85397744 382.41872814 231.40408951 386.67296417 233.9375 390.9375 C234.35684814 391.63560791 234.77619629 392.33371582 235.20825195 393.05297852 C238 397.76973773 238 397.76973773 238 400 C237.34 400 236.68 400 236 400 C234.46630859 397.76635742 234.46630859 397.76635742 232.6484375 394.60546875 C232.31768219 394.03560745 231.98692688 393.46574615 231.64614868 392.87861633 C230.54905569 390.98537137 229.46224977 389.08641193 228.375 387.1875 C227.607636 385.86017653 226.83939532 384.53335953 226.0703125 383.20703125 C224.88318497 381.1595926 223.69658197 379.11187095 222.51263428 377.06259155 C218.72662806 370.51081204 214.86930645 364.00295462 211 357.5 C205.45585172 348.15945694 199.93270799 338.80689966 194.4375 329.4375 C194.08254456 328.83232544 193.72758911 328.22715088 193.36187744 327.6036377 C188.3240124 319.00981817 183.33726215 310.38774672 178.375 301.75 C172.87568966 292.18064834 167.24855145 282.69586444 161.54980469 273.24414062 C155.55706497 263.29475618 149.71273428 253.26209407 143.87597656 243.22070312 C140.4307701 237.30592389 136.96416584 231.40368781 133.5 225.5 C128.17532691 216.42373362 122.86118184 207.34147626 117.5625 198.25 C110.19453101 185.61141553 102.78214771 173.0006229 95.31616211 160.41967773 C88.36792709 148.71014512 81.4676728 136.97410975 74.6171875 125.20703125 C68.85765662 115.31607737 63.06030328 105.44723642 57.26901245 95.57485962 C54.74475954 91.27129748 52.22333761 86.96608543 49.703125 82.66015625 C42.7703804 70.81746802 35.81765662 58.98753482 28.8125 47.1875 C20.10496312 32.51979869 11.43668617 17.82563298 3 3 C2.34 3 1.68 3 1 3 C0.45472656 3.98097656 -0.09054688 4.96195313 -0.65234375 5.97265625 C-4.68749792 13.20532598 -8.78916612 20.38216973 -13.07788086 27.46850586 C-17.11237932 34.15177315 -21.05591003 40.88815726 -25 47.625 C-25.36308258 48.24509949 -25.72616516 48.86519897 -26.10025024 49.50408936 C-27.59832631 52.06281695 -29.09620034 54.62166258 -30.59370422 57.1807251 C-33.18887289 61.61544319 -35.78681113 66.04852742 -38.38671875 70.48046875 C-45.02165409 81.79145108 -51.64931429 93.10647672 -58.25 104.4375 C-63.10411279 112.76881805 -67.99245681 121.07907121 -72.90429688 129.37646484 C-79.19647124 140.01099308 -85.43827552 150.67499446 -91.68269348 161.33760071 C-94.27835065 165.76938678 -96.87682873 170.19951053 -99.4765625 174.62890625 C-108.55949372 190.10365804 -108.55949372 190.10365804 -117.5625 205.625 C-122.25594607 213.76408502 -127.0455305 221.84524329 -131.84335327 229.9230957 C-137.89094715 240.10648079 -143.8728615 250.32712167 -149.83203125 260.5625 C-155.18743877 269.76056033 -160.59055193 278.93041252 -166.01171875 288.08984375 C-172.20408095 298.55358333 -178.36449924 309.03489008 -184.48510742 319.54077148 C-195.73736535 338.85222529 -207.02908891 358.14175923 -218.43847656 377.36083984 C-220.10016902 380.16929754 -221.74942822 382.98486038 -223.3984375 385.80078125 C-224.4945045 387.65902358 -225.59084856 389.51710252 -226.6875 391.375 C-227.446073 392.67932983 -227.446073 392.67932983 -228.2199707 394.01000977 C-228.68749756 394.79819092 -229.15502441 395.58637207 -229.63671875 396.3984375 C-230.25099731 397.44523682 -230.25099731 397.44523682 -230.87768555 398.51318359 C-231.4332312 399.24915771 -231.4332312 399.24915771 -232 400 C-232.66 400 -233.32 400 -234 400 C-232.67166164 395.52102996 -230.89838687 391.90092445 -228.4375 387.9375 C-227.63614751 386.63135582 -226.83686755 385.32393901 -226.0390625 384.015625 C-225.5740332 383.25314453 -225.10900391 382.49066406 -224.62988281 381.70507812 C-221.13251434 375.90057803 -217.73151349 370.03838532 -214.3125 364.1875 C-210.04424648 356.88456707 -205.77005386 349.58689127 -201.40600586 342.34057617 C-198.95575562 338.26164771 -196.54231226 334.16100405 -194.125 330.0625 C-190.45313843 323.84116592 -186.77762622 317.62206955 -183.08984375 311.41015625 C-175.54782356 298.70524113 -168.05073833 285.97580147 -160.6171875 273.20703125 C-156.65401452 266.40099756 -152.67186651 259.60613698 -148.6875 252.8125 C-148.33164825 252.20569397 -147.97579651 251.59888794 -147.60916138 250.97369385 C-145.79737162 247.8842296 -143.98540782 244.79486748 -142.17333984 241.70556641 C-138.96755395 236.23997896 -135.76343822 230.77341255 -132.5592041 225.30691528 C-131.49888007 223.4980895 -130.43842433 221.68934099 -129.37792969 219.88061523 C-126.17933061 214.42507104 -122.98141496 208.9691318 -119.78686523 203.51121521 C-118.00418962 200.46554884 -116.2209624 197.4202057 -114.4375 194.375 C-114.08592834 193.77464935 -113.73435669 193.17429871 -113.37213135 192.55575562 C-108.23715231 183.78955597 -103.06553727 175.04594538 -97.875 166.3125 C-92.66063376 157.53847336 -87.51860428 148.72683247 -82.4375 139.875 C-76.94848446 130.31272364 -71.32684628 120.83979037 -65.62915039 111.40063477 C-60.47011509 102.83320353 -55.46057184 94.18502041 -50.47998047 85.51293945 C-46.05856358 77.81902777 -41.57667702 70.16399451 -37.04980469 62.53173828 C-33.99754102 57.38393199 -30.95825586 52.22886032 -27.9375 47.0625 C-27.58593338 46.46127319 -27.23436676 45.86004639 -26.87214661 45.24060059 C-26.15179036 44.00862868 -25.43143823 42.77665438 -24.71109009 41.54467773 C-16.57619383 27.63427715 -8.32594979 13.79702594 0 0 Z " fill="#967BF0" transform="translate(2264,1040)"/>
<path d="M0 0 C0.33 0.66 0.66 1.32 1 2 C-0.43359375 4.8203125 -0.43359375 4.8203125 -2.4375 8.125 C-3.09621094 9.22070312 -3.75492188 10.31640625 -4.43359375 11.4453125 C-4.95050781 12.28835938 -5.46742188 13.13140625 -6 14 C-6.66 13.67 -7.32 13.34 -8 13 C-7.04600922 11.20601733 -6.08665974 9.41488345 -5.125 7.625 C-4.59132813 6.62726563 -4.05765625 5.62953125 -3.5078125 4.6015625 C-2 2 -2 2 0 0 Z M-9 14 C-8.00151422 16.59360498 -7.86194996 17.66902067 -8.94946289 20.27636719 C-9.7034436 21.52401855 -9.7034436 21.52401855 -10.47265625 22.796875 C-11.31666992 24.21613281 -11.31666992 24.21613281 -12.17773438 25.6640625 C-13.11069336 27.19160156 -13.11069336 27.19160156 -14.0625 28.75 C-15.36621071 30.93209735 -16.66958702 33.11439452 -17.97265625 35.296875 C-18.64441895 36.41255859 -19.31618164 37.52824219 -20.00830078 38.67773438 C-23.05351885 43.75732833 -26.02536356 48.87887132 -29 54 C-30.16626114 56.0002365 -31.33292927 58.00023576 -32.5 60 C-33.0775 60.99 -33.655 61.98 -34.25 63 C-39.5 72 -39.5 72 -41.24975586 74.99951172 C-42.41731728 77.00109211 -43.58479764 79.00271977 -44.75219727 81.00439453 C-47.65451416 85.98060392 -50.55819916 90.95600455 -53.46484375 95.9296875 C-60.14383479 107.36219469 -66.78547374 118.81535395 -73.39428711 130.28857422 C-78.14414532 138.52969191 -82.93095041 146.7486691 -87.73046875 154.9609375 C-92.01222151 162.29283774 -96.26203368 169.6427156 -100.5 177 C-109.23882248 192.16805856 -118.04136726 207.29863011 -126.9375 222.375 C-133.71346679 233.865172 -140.34407879 245.44006177 -147 257 C-162.14821251 283.30926587 -162.14821251 283.30926587 -169.20703125 295.26171875 C-171.50523719 299.15481163 -173.79087059 303.05521241 -176.07421875 306.95703125 C-177.57026281 309.51304992 -179.06635064 312.06904296 -180.5625 314.625 C-181.12062881 315.57854874 -181.12062881 315.57854874 -181.69003296 316.55136108 C-185.81681092 323.59967196 -189.9580842 330.63759596 -194.1875 337.625 C-197.00990138 342.30212228 -199.68181491 347.02786035 -202.265625 351.83984375 C-204.65820561 356.19929805 -207.13803839 360.5063493 -209.625 364.8125 C-210.09276855 365.62557617 -210.56053711 366.43865234 -211.04248047 367.27636719 C-216.25985645 376.28465252 -216.25985645 376.28465252 -219 380 C-219.66 380 -220.32 380 -221 380 C-219.67403765 375.58149813 -217.93268916 371.8757003 -215.578125 367.9140625 C-215.24167465 367.34412567 -214.9052243 366.77418884 -214.55857849 366.1869812 C-213.46084317 364.32989802 -212.3553806 362.47754069 -211.25 360.625 C-210.47959084 359.32394278 -209.70982325 358.02250546 -208.94067383 356.72070312 C-207.3782234 354.07711164 -205.81336119 351.43497343 -204.24658203 348.79394531 C-201.03562571 343.37700543 -197.85910303 337.9400522 -194.6875 332.5 C-194.1210376 331.52957764 -193.5545752 330.55915527 -192.97094727 329.55932617 C-188.65978491 322.16226607 -184.41414289 314.72899211 -180.1796875 307.2878418 C-177.40664228 302.42620787 -174.58896877 297.59849786 -171.6875 292.8125 C-166.95468093 285.00477211 -162.41600666 277.08669579 -157.86230469 269.17358398 C-151.86094236 258.74729873 -145.80379849 248.35425716 -139.73388672 237.96777344 C-136.8198916 232.98009043 -133.91017432 227.98991295 -131 223 C-129.83335357 220.9999882 -128.66668691 218.99998819 -127.5 217 C-126.9225 216.01 -126.345 215.02 -125.75 214 C-120.5 205 -120.5 205 -118.74926758 201.9987793 C-117.58500182 200.00287193 -116.42077643 198.00694102 -115.2565918 196.01098633 C-112.30352517 190.94817321 -109.34971373 185.88579717 -106.39453125 180.82421875 C-105.20046222 178.77868004 -104.00645141 176.73310736 -102.8125 174.6875 C-102.22799072 173.68605957 -101.64348145 172.68461914 -101.04125977 171.65283203 C-97.49216667 165.56852988 -93.95939794 159.475074 -90.4375 153.375 C-86.58470272 146.70330638 -82.67951666 140.06426626 -78.75 133.4375 C-74.0021529 125.42992642 -69.32607443 117.38382543 -64.6875 109.3125 C-58.84484248 99.15000928 -52.9044791 89.04937169 -46.9152832 78.97265625 C-40.80653358 68.69049934 -34.77531313 58.3643827 -28.76171875 48.02636719 C-26.89569587 44.82082124 -25.02639587 41.61720469 -23.15625 38.4140625 C-22.52348145 37.33020264 -21.89071289 36.24634277 -21.23876953 35.12963867 C-20.03155803 33.06200828 -18.82421 30.99445758 -17.61669922 28.92700195 C-14.72064508 23.96459483 -11.84020129 18.99459788 -9 14 Z " fill="#957AEE" transform="translate(2179,1060)"/>
<path d="M0 0 C0.33 0.66 0.66 1.32 1 2 C0.00708008 4.21923828 0.00708008 4.21923828 -1.54296875 6.9453125 C-2.10290527 7.93692383 -2.6628418 8.92853516 -3.23974609 9.95019531 C-3.82062988 10.95663086 -4.40151367 11.96306641 -5 13 C-5.50740723 13.88526367 -6.01481445 14.77052734 -6.53759766 15.68261719 C-8.11755141 18.42038797 -9.71296732 21.14862468 -11.3125 23.875 C-11.91006104 24.89674316 -12.50762207 25.91848633 -13.12329102 26.97119141 C-16.46466566 32.68196689 -19.81433669 38.38787099 -23.1640625 44.09375 C-24.58869186 46.52074521 -26.01314498 48.94784378 -27.4375 51.375 C-27.79467102 51.98352814 -28.15184204 52.59205627 -28.51983643 53.21902466 C-34.24032695 62.96781871 -39.9079616 72.74607937 -45.54663086 82.54248047 C-50.24524123 90.70286388 -54.9831381 98.83963416 -59.7355957 106.96875 C-63.97875877 114.23288332 -68.18146372 121.5196313 -72.375 128.8125 C-77.49278565 137.70901148 -82.68647539 146.55652935 -87.9375 155.375 C-93.73085603 165.1058409 -99.39809249 174.89939654 -104.9916687 184.74560547 C-110.06872901 193.67805308 -115.24578448 202.54564018 -120.5 211.375 C-125.7532448 220.20403232 -130.94397257 229.0562702 -136 238 C-143.45821777 251.12553894 -151.01061192 264.19333496 -158.62890625 277.2265625 C-161.59960867 282.30985753 -164.55396792 287.40237758 -167.5 292.5 C-172.78307367 301.63578273 -178.08680058 310.75937783 -183.41796875 319.8671875 C-185.8541153 324.02952171 -188.27050783 328.20256899 -190.67578125 332.3828125 C-191.84615561 334.40115682 -193.01672116 336.41939028 -194.1875 338.4375 C-194.72810059 339.38536377 -195.26870117 340.33322754 -195.82568359 341.30981445 C-196.3305127 342.17566162 -196.8353418 343.04150879 -197.35546875 343.93359375 C-197.79528076 344.69728271 -198.23509277 345.46097168 -198.68823242 346.24780273 C-200 348 -200 348 -203 349 C-201.3327208 344.4261271 -199.0602376 340.29643665 -196.6875 336.0625 C-196.24946045 335.27746094 -195.8114209 334.49242187 -195.36010742 333.68359375 C-191.40157369 326.63269297 -187.29341592 319.67363374 -183.16186523 312.72314453 C-178.96723817 305.66036012 -174.84433816 298.55883734 -170.75 291.4375 C-165.02480579 281.48322435 -159.23982715 271.56602635 -153.42211914 261.66571045 C-148.32392671 252.98785614 -143.26814711 244.28699642 -138.25 235.5625 C-133.1983666 226.78026703 -128.08428833 218.0386987 -122.91308594 209.32641602 C-118.71986863 202.2492425 -114.60109778 195.13088839 -110.5 188 C-105.8820507 179.97042285 -101.22784956 171.96537498 -96.5 164 C-91.79674747 156.07424223 -87.16054171 148.11225294 -82.5625 140.125 C-72.77490934 123.12298757 -62.89841518 106.1748861 -52.8984375 89.296875 C-48.85597874 82.467867 -44.86153203 75.61176935 -40.875 68.75 C-36.66716151 61.5089144 -32.3955064 54.31625083 -28 47.1875 C-24.65751368 41.76628797 -21.44878644 36.31627889 -18.44921875 30.6953125 C-4.20689655 4.20689655 -4.20689655 4.20689655 0 0 Z " fill="#957AEE" transform="translate(2187,1091)"/>
<path d="M0 0 C2.21629637 2.21629637 2.61404157 3.44692972 3.51220703 6.40209961 C3.93241623 7.76878029 3.93241623 7.76878029 4.3611145 9.16307068 C4.65702484 10.14953079 4.95293518 11.13599091 5.2578125 12.15234375 C5.56572723 13.1634169 5.87364197 14.17449005 6.19088745 15.21620178 C6.8410853 17.35634436 7.48814673 19.49744192 8.13232422 21.6394043 C9.12060166 24.92288684 10.12005063 28.20281159 11.12109375 31.48242188 C11.75066828 33.55969341 12.37959629 35.63716102 13.0078125 37.71484375 C13.3077713 38.69927963 13.6077301 39.68371552 13.91677856 40.69798279 C14.19061371 41.6122554 14.46444885 42.52652802 14.74658203 43.46850586 C14.98925812 44.27299667 15.2319342 45.07748749 15.48196411 45.90635681 C16 48 16 48 16 51 C6.1 51 -3.8 51 -14 51 C-12.875 42 -12.875 42 -11.69311523 38.14453125 C-11.43292099 37.28424316 -11.17272675 36.42395508 -10.90464783 35.53759766 C-10.62544998 34.63831543 -10.34625214 33.7390332 -10.05859375 32.8125 C-9.77146011 31.86938965 -9.48432648 30.9262793 -9.18849182 29.95458984 C-8.27762539 26.96781146 -7.35771908 23.9839085 -6.4375 21 C-5.81515404 18.9650275 -5.19340309 16.92987294 -4.57226562 14.89453125 C-3.05505186 9.9275549 -1.52972918 4.96313543 0 0 Z " fill="#9279E0" transform="translate(809,798)"/>
<path d="M0 0 C0.33 0.66 0.66 1.32 1 2 C0.01586914 4.20605469 0.01586914 4.20605469 -1.52734375 6.921875 C-2.08663574 7.91251953 -2.64592773 8.90316406 -3.22216797 9.92382812 C-3.80885254 10.93896484 -4.39553711 11.95410156 -5 13 C-5.52867676 13.91716797 -6.05735352 14.83433594 -6.60205078 15.77929688 C-8.24554381 18.60883142 -9.9026336 21.43004234 -11.5625 24.25 C-16.25403994 32.25515376 -20.88797834 40.28829032 -25.4375 48.375 C-31.90647464 59.86914914 -38.49305066 71.29353297 -45.09716797 82.71044922 C-56.12403031 101.7733108 -67.0859591 120.8724082 -78 140 C-80.68677211 144.7087491 -83.37401542 149.41722839 -86.0625 154.125 C-86.39269135 154.70321503 -86.72288269 155.28143005 -87.06307983 155.87716675 C-92.56050119 165.50172983 -98.09219239 175.10626049 -103.63696289 184.70361328 C-107.9247311 192.12773632 -112.18625563 199.56636375 -116.43359375 207.01367188 C-121.16533606 215.30373514 -125.93842699 223.5697959 -130.71264648 231.83544922 C-133.84356498 237.25731324 -136.96692472 242.68288586 -140.0625 248.125 C-142.38138636 252.19682422 -144.72811271 256.25039029 -147.09765625 260.29296875 C-153.80204196 271.73142148 -160.40400857 283.21631257 -166.85839844 294.79785156 C-172.49519396 304.90951372 -178.23402088 314.96156161 -184 325 C-184.99 325 -185.98 325 -187 325 C-185.59212373 321.23925218 -183.87068945 317.84901808 -181.8671875 314.37109375 C-181.23417725 313.26813965 -180.60116699 312.16518555 -179.94897461 311.02880859 C-179.25768746 309.83168395 -178.56636151 308.6345817 -177.875 307.4375 C-177.1553417 306.18590429 -176.43602802 304.93411037 -175.71704102 303.68212891 C-174.22264909 301.08047011 -172.7267756 298.47967136 -171.22998047 295.87939453 C-169.11561111 292.20395837 -167.01089031 288.52308703 -164.91015625 284.83984375 C-164.58083603 284.26246964 -164.25151581 283.68509552 -163.91221619 283.09022522 C-163.42018456 282.22753273 -163.42018456 282.22753273 -162.91821289 281.34741211 C-155.27409034 267.94640694 -147.57768177 254.57589862 -139.85888672 241.21777344 C-136.73675397 235.81329359 -133.61854119 230.40655282 -130.5 225 C-126.76363085 218.52233115 -123.02651653 212.04510017 -119.28515625 205.5703125 C-112.82980792 194.39550783 -106.39689261 183.2083514 -100 172 C-89.3761275 153.38723527 -78.66417069 134.82702891 -67.84277344 116.32836914 C-64.71738345 110.97620542 -61.63515321 105.60519843 -58.625 100.1875 C-54.33632199 92.4719689 -49.79838542 84.90651156 -45.27676392 77.32611084 C-39.54996411 67.71578963 -34.01456308 58.01431913 -28.60473633 48.22094727 C-25.88339456 43.30477616 -23.08570001 38.48568006 -20.06958008 33.74511719 C-18.53919062 31.24814757 -17.29463394 28.6257832 -16 26 C-14.2482356 22.83100451 -12.43831053 19.69658671 -10.625 16.5625 C-10.15578125 15.74201172 -9.6865625 14.92152344 -9.203125 14.07617188 C-6.37232397 9.17700931 -3.36675278 4.54817694 0 0 Z " fill="#967BEE" transform="translate(2200,1115)"/>
<path d="M0 0 C1.74231037 2.61346556 2.53100806 4.29834662 3.42041016 7.22436523 C3.68052887 8.07212021 3.94064758 8.91987518 4.20864868 9.7933197 C4.48268524 10.70586014 4.7567218 11.61840057 5.0390625 12.55859375 C5.32478119 13.49929214 5.61049988 14.43999054 5.90487671 15.40919495 C6.50742768 17.39810378 7.10743154 19.38778578 7.70507812 21.37817383 C8.62108117 24.42446741 9.54826361 27.46719956 10.4765625 30.50976562 C11.06057425 32.44250347 11.64392964 34.37543979 12.2265625 36.30859375 C12.50464752 37.21910995 12.78273254 38.12962616 13.06924438 39.06773376 C13.32305878 39.9186409 13.57687317 40.76954803 13.83837891 41.64624023 C14.0632901 42.39219955 14.28820129 43.13815887 14.51992798 43.90672302 C15 46 15 46 15 50 C5.1 50 -4.8 50 -15 50 C-11.42316307 37.15258571 -7.83183527 24.31057302 -4.125 11.5 C-3.827146 10.46230469 -3.52929199 9.42460938 -3.22241211 8.35546875 C-2.8068103 6.92654297 -2.8068103 6.92654297 -2.3828125 5.46875 C-2.13934082 4.62763672 -1.89586914 3.78652344 -1.64501953 2.91992188 C-1 1 -1 1 0 0 Z " fill="#8B70E1" transform="translate(1222,798)"/>
<path d="M0 0 C3.15955095 2.1815947 4.80451702 3.38158977 6.625 6.8125 C7.36753581 12.275442 7.60743979 17.05814323 4.875 21.9375 C-0.0673821 26.05615175 -4.13953017 26.24432953 -10.45703125 26.12890625 C-15.5257536 25.57928575 -18.08385816 23.36187021 -21.25 19.5625 C-23.27982621 14.60070261 -22.95550478 10.48951381 -21.25 5.5625 C-15.96455785 -2.18948182 -8.40094123 -2.95588673 0 0 Z " fill="#FDFCFE" transform="translate(1627.375,765.1875)"/>
<path d="M0 0 C1 3 1 3 0.06640625 5.13110352 C-0.42988281 5.95537842 -0.92617187 6.77965332 -1.4375 7.62890625 C-1.99550293 8.56887451 -2.55350586 9.50884277 -3.12841797 10.47729492 C-3.74604004 11.4954126 -4.36366211 12.51353027 -5 13.5625 C-6.29517658 15.7364398 -7.58941465 17.91093896 -8.8828125 20.0859375 C-9.89843262 21.78508301 -9.89843262 21.78508301 -10.93457031 23.51855469 C-14.31813225 29.20091204 -17.58690691 34.94956124 -20.875 40.6875 C-25.07576811 47.99279242 -29.33211177 55.23485115 -33.80078125 62.37890625 C-37.04989825 67.66010616 -40.09805174 73.06209203 -43.1875 78.4375 C-48.12355232 87.02586036 -53.08602521 95.59654797 -58.125 104.125 C-58.64473389 105.00599365 -59.16446777 105.8869873 -59.69995117 106.79467773 C-62.40153559 111.35759869 -65.15262593 115.8790619 -68.0090332 120.34692383 C-69.28222994 122.47080042 -70.11226213 124.69188154 -71 127 C-72.27886555 129.36863814 -73.63477174 131.67911195 -75 134 C-75.66 134 -76.32 134 -77 134 C-77.2475 134.680625 -77.495 135.36125 -77.75 136.0625 C-78.95977109 138.90546206 -80.41867175 141.49085448 -81.98046875 144.15234375 C-83.55791046 147.01107911 -84.76678597 149.97862562 -86 153 C-87.98 153 -89.96 153 -92 153 C-85.51065553 140.78631509 -78.38794562 128.93625068 -71.25 117.09375 C-69.45511617 114.08731958 -67.72288269 111.04817707 -66 108 C-65.34 108 -64.68 108 -64 108 C-63.80555298 107.12347778 -63.80555298 107.12347778 -63.60717773 106.22924805 C-61.69273795 99.20039816 -57.19634767 92.84827453 -53.4375 86.6875 C-49.3498411 79.9331303 -45.31670744 73.15312393 -41.375 66.3125 C-32.86904669 51.55982082 -24.20779259 36.90245653 -15.38671875 22.3359375 C-14.66935547 21.14871094 -14.66935547 21.14871094 -13.9375 19.9375 C-13.24527344 18.7928125 -13.24527344 18.7928125 -12.5390625 17.625 C-11.31368485 15.53501579 -10.12873025 13.43458323 -8.9609375 11.3125 C-8.42738647 10.35162476 -8.42738647 10.35162476 -7.88305664 9.37133789 C-7.18152093 8.10409402 -6.48768711 6.83254876 -5.80249023 5.55639648 C-3.33447918 1.11149306 -3.33447918 1.11149306 0 0 Z " fill="#9F83EF" transform="translate(2032,1287)"/>
<path d="M0 0 C0.33 0.66 0.66 1.32 1 2 C-0.01293945 4.25219727 -0.01293945 4.25219727 -1.61328125 7.06640625 C-2.1964209 8.09999268 -2.77956055 9.1335791 -3.38037109 10.19848633 C-4.01797363 11.30861084 -4.65557617 12.41873535 -5.3125 13.5625 C-5.96041504 14.70420654 -6.60833008 15.84591309 -7.27587891 17.0222168 C-11.13665705 23.8065656 -15.05120901 30.55813987 -19.03735352 37.26953125 C-23.02078611 43.98853579 -26.88379482 50.77566972 -30.75 57.5625 C-35.78695738 66.4026362 -40.85842337 75.22009807 -46 84 C-53.07294604 96.08404068 -60.01747335 108.24004924 -66.95019531 120.40478516 C-70.03949824 125.82461809 -73.13599497 131.24034097 -76.23190308 136.65640259 C-80.2518079 143.6889767 -84.27137923 150.72173869 -88.28515625 157.7578125 C-107.21238254 190.93149957 -107.21238254 190.93149957 -114.05078125 201.75 C-116.25510104 205.42533881 -118.29375503 209.17276062 -120.33422852 212.94091797 C-123.27594651 218.34319358 -126.29996722 223.69949475 -129.3125 229.0625 C-130.55900516 231.28232111 -131.80511983 233.50236156 -133.05078125 235.72265625 C-133.59387939 236.68953369 -134.13697754 237.65641113 -134.6965332 238.65258789 C-135.49267635 240.08636132 -136.2665765 241.533153 -137 243 C-137.99 243 -138.98 243 -140 243 C-138.34586536 238.46872691 -136.10288094 234.38144146 -133.75 230.1875 C-133.09898315 229.02093872 -133.09898315 229.02093872 -132.43481445 227.83081055 C-128.17924699 220.24531535 -123.78429344 212.74217922 -119.38574219 205.23901367 C-115.35947889 198.36126606 -111.40516067 191.44714432 -107.5 184.5 C-102.5409333 175.68337982 -97.48466821 166.92837876 -92.37548828 158.19799805 C-82.90626771 142.01497705 -73.56501141 125.75813963 -64.27246094 109.47314453 C-58.16077872 98.76845297 -51.98571192 88.10071324 -45.76171875 77.4609375 C-39.59937746 66.92614658 -33.45871768 56.37893807 -27.38046265 45.79537964 C-26.67623711 44.57027473 -25.97071959 43.34591145 -25.26382446 42.12234497 C-20.15918955 33.29288012 -20.15918955 33.29288012 -16 24 C-15.34 24 -14.68 24 -14 24 C-14 23.01 -14 22.02 -14 21 C-13.34 21 -12.68 21 -12 21 C-11.67 19.35 -11.34 17.7 -11 16 C-10.34 16 -9.68 16 -9 16 C-8.731875 14.9275 -8.46375 13.855 -8.1875 12.75 C-7.11809438 9.37292962 -6.18702907 7.66247018 -4 5 C-3.67 4.01 -3.34 3.02 -3 2 C-2.01 1.34 -1.02 0.68 0 0 Z " fill="#9779EE" transform="translate(2140,1197)"/>
<path d="M0 0 C0.66 0 1.32 0 2 0 C1.33747774 3.32791865 0.08682002 5.88345556 -1.58984375 8.82421875 C-2.12182373 9.76185059 -2.65380371 10.69948242 -3.2019043 11.66552734 C-4.06102417 13.16140381 -4.06102417 13.16140381 -4.9375 14.6875 C-5.5250708 15.7182666 -6.1126416 16.7490332 -6.71801758 17.81103516 C-11.73297178 26.58771583 -16.84307808 35.30623221 -22 44 C-23.56505311 46.64433172 -25.1273128 49.29029453 -26.6875 51.9375 C-27.29380249 52.96617188 -27.29380249 52.96617188 -27.91235352 54.015625 C-31.69175279 60.44471573 -35.40721712 66.91014601 -39.125 73.375 C-44.32602159 82.41747558 -49.59988055 91.41253052 -54.9375 100.375 C-61.12002024 110.76172431 -67.16066131 121.22016587 -73.13818359 131.72558594 C-77.96388372 140.20440683 -82.85478149 148.64290794 -87.78173828 157.06323242 C-92.04906254 164.35954628 -96.2815608 171.67532472 -100.5 179 C-107.62096295 191.36016807 -114.79601635 203.68806276 -122 216 C-122.47840332 216.81887695 -122.95680664 217.63775391 -123.44970703 218.48144531 C-128.85243073 227.72726401 -134.33988641 236.90903544 -140 246 C-140.99 245.67 -141.98 245.34 -143 245 C-142.62415771 244.37883301 -142.24831543 243.75766602 -141.86108398 243.11767578 C-131.35700284 225.73631944 -121.13547001 208.20914176 -111.04443359 190.58447266 C-97.30560035 166.59684435 -97.30560035 166.59684435 -91.3190918 157.33154297 C-88.52779351 152.98359575 -86.06376555 148.49305783 -83.60913086 143.94750977 C-80.84965655 138.89286959 -77.95064174 133.91938156 -75.0625 128.9375 C-74.07307216 127.2275146 -73.08364747 125.51752738 -72.09440613 123.80743408 C-71.41522686 122.63346543 -70.7358742 121.45959708 -70.05635071 120.28582764 C-67.7330681 116.27173526 -65.41900841 112.25243676 -63.109375 108.23046875 C-57.01949347 97.63147017 -50.88069958 87.07179931 -44.55566406 76.61132812 C-39.80657654 68.733095 -35.22561589 60.76046809 -30.64331055 52.78442383 C-26.58219254 45.72226479 -22.47220652 38.69199826 -18.3125 31.6875 C-12.08334212 21.19588159 -6.01902652 10.61331482 0 0 Z " fill="#9779EE" transform="translate(2113,1194)"/>
<path d="M0 0 C3.68586433 4.24638747 6.22987872 8.82827751 8.875 13.75 C11.89905074 19.29843235 14.9794226 24.66759805 18.60693359 29.84887695 C20.02475393 32.03822412 21.16161345 34.24073525 22.29296875 36.58984375 C24.9818405 42.0435695 27.95413901 47.30181877 31 52.5625 C32.02136244 54.33433052 33.04220073 56.10646329 34.0625 57.87890625 C34.80222046 59.16220825 34.80222046 59.16220825 35.55688477 60.47143555 C36.94509405 62.90379616 38.30281739 65.3507012 39.65234375 67.8046875 C41.99703049 72.04488907 44.58819455 76.08416587 47.25390625 80.12890625 C48.57022069 82.2933159 49.70771094 84.38080379 50.8125 86.6484375 C53.41297978 91.94589559 56.43795753 96.98380448 59.4375 102.0625 C64.19768111 110.16874984 68.89550913 118.30431804 73.5 126.5 C77.86940972 134.27004828 82.30703271 141.99554809 86.8125 149.6875 C91.90765196 158.38647051 96.94424677 167.117229 101.9375 175.875 C107.12426622 184.97088921 112.3268158 194.05712391 117.5625 203.125 C118.17802734 204.19105469 118.79355469 205.25710938 119.42773438 206.35546875 C121.28470194 209.57057523 123.14223579 212.78535378 125 216 C135.38531437 233.97058611 145.71662389 251.97094265 156 270 C155.01 270.33 154.02 270.66 153 271 C152.7097998 270.45923828 152.41959961 269.91847656 152.12060547 269.36132812 C145.78306699 257.57997495 139.27191756 245.92330165 132.49560547 234.38867188 C127.93749567 226.62585453 123.45433179 218.82257733 119 211 C114.01067586 202.23972378 108.97559483 193.50865499 103.875 184.8125 C98.45017187 175.55960597 93.18324812 166.22601569 87.96386719 156.85595703 C84.37653576 150.42638635 80.71654677 144.05061407 76.95678711 137.72070312 C73.00094354 131.0438796 69.1557858 124.3044765 65.3125 117.5625 C60.00645018 108.25486107 54.67678896 98.96176887 49.3125 89.6875 C44.64110371 81.60893977 40.0141677 73.50758463 35.4375 65.375 C31.06426816 57.60748852 26.62472197 49.88242122 22.125 42.1875 C21.55628174 41.21312988 20.98756348 40.23875977 20.40161133 39.23486328 C17.56223314 34.37269127 14.71532445 29.5151817 11.85305786 24.66645813 C10.44541058 22.27775432 9.04497383 19.88487316 7.64593506 17.49111938 C6.64397698 15.78236366 5.63286271 14.07898739 4.62158203 12.37573242 C3.71448486 10.8207605 3.71448486 10.8207605 2.7890625 9.234375 C2.24975098 8.31881836 1.71043945 7.40326172 1.15478516 6.45996094 C0 4 0 4 0 0 Z " fill="#9478EF" transform="translate(2363,1169)"/>
<path d="M0 0 C3.2237844 1.34585174 4.61622694 2.4792443 6.2265625 5.5703125 C6.61360352 6.29404053 7.00064453 7.01776855 7.39941406 7.76342773 C7.80385742 8.54274658 8.20830078 9.32206543 8.625 10.125 C11.9700281 16.36967886 15.43974329 22.46466516 19.25 28.4375 C22.59052638 33.69148194 25.71747131 38.99074656 28.640625 44.4921875 C30.45676524 47.84265312 32.44093286 51.08080524 34.42089844 54.33618164 C35.93982486 56.89848933 37.37087902 59.48992258 38.78125 62.11328125 C41.90877929 67.87244156 45.18274327 73.536018 48.5 79.1875 C49.73962569 81.3059648 50.97920779 83.4244551 52.21875 85.54296875 C52.84652344 86.61466309 53.47429688 87.68635742 54.12109375 88.79052734 C57.0869673 93.85671415 60.0432485 98.92848583 63 104 C66.48613032 109.97782118 69.97324228 115.95505999 73.46484375 121.9296875 C80.14301128 133.36078507 86.78321653 144.81288112 93.39208984 156.28417969 C99.88499878 167.5479725 106.43942556 178.77552764 113 190 C115.31332038 193.95785474 117.62595428 197.9161085 119.9375 201.875 C120.50380127 202.84477783 121.07010254 203.81455566 121.65356445 204.8137207 C124.83149295 210.26217369 127.99561959 215.7183362 131.14453125 221.18359375 C131.48866562 221.78081238 131.83279999 222.37803101 132.18736267 222.99334717 C133.86098914 225.89867793 135.53287989 228.80498473 137.20288086 231.71240234 C137.80108643 232.75219238 138.39929199 233.79198242 139.015625 234.86328125 C139.54446289 235.78407471 140.07330078 236.70486816 140.61816406 237.65356445 C141.68824811 239.47062767 142.83027964 241.24541946 144 243 C143.625 245.1875 143.625 245.1875 143 247 C142.61368408 246.32759277 142.22736816 245.65518555 141.8293457 244.96240234 C139.9917572 241.7658177 138.15271498 238.57007312 136.3125 235.375 C135.97530945 234.78954407 135.6381189 234.20408813 135.29071045 233.60089111 C130.61957892 225.49503089 125.90223517 217.41894725 121.125 209.375 C117.57280566 203.39266375 114.0646599 197.39540347 110.6875 191.3125 C106.7415552 184.20961414 102.59581771 177.2301124 98.4375 170.25 C92.54289696 160.35349434 86.76599551 150.39939662 81.07333374 140.38485718 C75.51802275 130.61527836 69.86520731 120.90649433 64.16604614 111.22021484 C59.55695976 103.38530496 54.99128237 95.52825869 50.5 87.625 C47.29226662 81.98075085 44.05296531 76.36422666 40.6875 70.8125 C36.63024402 64.11920026 32.71673409 57.34601388 28.8125 50.5625 C23.72190517 41.72124483 18.62750327 32.88241779 13.5 24.0625 C12.94932861 23.11125244 12.39865723 22.16000488 11.83129883 21.17993164 C8.4757153 15.41625335 4.96991403 9.7839002 1.30273438 4.21264648 C0 2 0 2 0 0 Z " fill="#9377F0" transform="translate(2416,1171)"/>
<path d="M0 0 C1 3 1 3 -0.04125977 5.34643555 C-0.58580811 6.267229 -1.13035645 7.18802246 -1.69140625 8.13671875 C-2.29919922 9.17642822 -2.90699219 10.2161377 -3.53320312 11.28735352 C-4.20287109 12.40940186 -4.87253906 13.5314502 -5.5625 14.6875 C-6.25421965 15.8626327 -6.94496227 17.03834102 -7.63476562 18.21459961 C-9.05642994 20.63592373 -10.48340188 23.05399696 -11.91455078 25.46972656 C-13.82400236 28.69621154 -15.71076742 31.93539825 -17.58984375 35.1796875 C-24.12991428 46.46846252 -30.79568195 57.67575663 -37.53076172 68.84912109 C-41.99031937 76.26701066 -46.32297046 83.74819505 -50.59350586 91.27612305 C-54.58436054 98.30218198 -58.67503335 105.2650691 -62.79785156 112.21435547 C-66.62476671 118.66650287 -70.42415582 125.13428134 -74.20996094 131.6105957 C-77.43754362 137.13135057 -80.67640169 142.64547107 -83.91766357 148.15820312 C-85.00882123 150.01501097 -86.09844235 151.87271482 -87.18798828 153.73046875 C-89.26159039 157.26352157 -91.34874079 160.788387 -93.4375 164.3125 C-94.07026855 165.39249268 -94.70303711 166.47248535 -95.35498047 167.58520508 C-95.93779785 168.56384521 -96.52061523 169.54248535 -97.12109375 170.55078125 C-97.88570923 171.84495972 -97.88570923 171.84495972 -98.66577148 173.1652832 C-99.10606689 173.77073975 -99.5463623 174.37619629 -100 175 C-100.66 175 -101.32 175 -102 175 C-100.67166164 170.52102996 -98.89838687 166.90092445 -96.4375 162.9375 C-95.63614751 161.63135582 -94.83686755 160.32393901 -94.0390625 159.015625 C-93.5740332 158.25314453 -93.10900391 157.49066406 -92.62988281 156.70507812 C-89.13251434 150.90057803 -85.73151349 145.03838532 -82.3125 139.1875 C-78.04424648 131.88456707 -73.77005386 124.58689127 -69.40600586 117.34057617 C-66.95575562 113.26164771 -64.54231226 109.16100405 -62.125 105.0625 C-58.45313843 98.84116592 -54.77762622 92.62206955 -51.08984375 86.41015625 C-43.56002674 73.725798 -36.07559717 61.01662783 -28.65234375 48.26953125 C-24.85219848 41.74403988 -21.04597911 35.22213116 -17.23190308 28.70477295 C-16.50977126 27.47027417 -15.78816836 26.2354658 -15.06716919 25.00030518 C-10.15962426 16.59379931 -5.13498632 8.26922855 0 0 Z " fill="#A189EF" transform="translate(2132,1265)"/>
<path d="M0 0 C3.84209066 1.28069689 4.16285874 2.53058922 6.1171875 6.01171875 C6.71708496 7.06786377 7.31698242 8.12400879 7.93505859 9.2121582 C8.57523926 10.359021 9.21541992 11.50588379 9.875 12.6875 C10.89257733 14.4855735 11.91351401 16.28171383 12.93447876 18.0778656 C13.62676942 19.29646752 14.31798456 20.51568105 15.00814819 21.73548889 C18.06427828 27.13445831 21.2041451 32.48036067 24.375 37.8125 C29.38250335 46.25436329 34.35465287 54.71642655 39.3125 63.1875 C44.88418785 72.70707836 50.48882618 82.20591223 56.125 91.6875 C61.33944239 100.46148274 66.48131304 109.27321548 71.5625 118.125 C76.55765152 126.82521251 81.63855809 135.46737563 86.8125 144.0625 C87.43334473 145.0939917 88.05418945 146.1254834 88.69384766 147.18823242 C89.89437283 149.18189879 91.09505128 151.17547287 92.29589844 153.16894531 C94.85397744 157.41872814 97.40408951 161.67296417 99.9375 165.9375 C100.35684814 166.63560791 100.77619629 167.33371582 101.20825195 168.05297852 C104 172.76973773 104 172.76973773 104 175 C103.34 175 102.68 175 102 175 C100.46630859 172.76635742 100.46630859 172.76635742 98.6484375 169.60546875 C98.31768219 169.03560745 97.98692688 168.46574615 97.64614868 167.87861633 C96.54905569 165.98537137 95.46224977 164.08641193 94.375 162.1875 C93.607636 160.86017653 92.83939532 159.53335953 92.0703125 158.20703125 C90.88318497 156.1595926 89.69658197 154.11187095 88.51263428 152.06259155 C84.72662806 145.51081204 80.86930645 139.00295462 77 132.5 C71.45585172 123.15945694 65.93270799 113.80689966 60.4375 104.4375 C60.08254456 103.83232544 59.72758911 103.22715088 59.36187744 102.6036377 C54.3240124 94.00981817 49.33726215 85.38774672 44.375 76.75 C38.88207748 67.19176379 33.26192521 57.71771748 27.56958008 48.27709961 C20.92917211 37.25278379 14.4462158 26.13872766 8 15 C7.54383301 14.21302734 7.08766602 13.42605469 6.61767578 12.61523438 C0 1.18632257 0 1.18632257 0 0 Z " fill="#9F86F1" transform="translate(2398,1265)"/>
<path d="M0 0 C3.98920296 1.32973432 4.4171496 2.99826855 6.4375 6.625 C7.05238281 7.71683594 7.66726562 8.80867188 8.30078125 9.93359375 C8.86152344 10.94550781 9.42226562 11.95742187 10 13 C10.70613861 14.23042882 11.41397275 15.45988969 12.125 16.6875 C13.13025207 18.46344532 14.13140501 20.24191524 15.10546875 22.03515625 C17.40506045 26.25479539 19.82725124 30.33888849 22.4375 34.375 C25.26227707 38.76977119 27.8313306 43.23407409 30.30078125 47.8359375 C36.78486752 59.90975331 43.59751083 71.78345386 50.53393555 83.60205078 C54.886387 91.03834678 59.12296331 98.53337873 63.3125 106.0625 C67.56467225 113.70042532 71.90501623 121.24867764 76.4453125 128.71875 C79.76800258 134.24073116 82.96634851 139.83563102 86.16973877 145.42733765 C86.87899836 146.66506556 87.58921377 147.90224633 88.30047607 149.13882446 C92.42768089 156.31804596 96.40713072 163.53550433 100 171 C96.09439667 169.69813222 95.75349685 168.31354055 93.76953125 164.76171875 C93.13942139 163.64531006 92.50931152 162.52890137 91.86010742 161.37866211 C91.17749842 160.14831535 90.49496462 158.91792686 89.8125 157.6875 C89.10164174 156.42205955 88.38979397 155.15717449 87.67700195 153.89282227 C86.19126804 151.2555746 84.70987335 148.61595914 83.23144531 145.97460938 C80.08831945 140.36654817 76.89523694 134.78714702 73.70098877 129.20809937 C72.68434156 127.43198209 71.66891362 125.65517289 70.65380859 123.87817383 C65.62646319 115.08124829 60.55964508 106.30788275 55.47509766 97.54394531 C47.70863148 84.14994043 39.96360323 70.74572627 32.375 57.25 C25.60712172 45.22305231 18.58648983 33.34982734 11.50830078 21.50341797 C10.12726212 19.19170983 8.75096026 16.87723307 7.375 14.5625 C6.97321533 13.89492676 6.57143066 13.22735352 6.1574707 12.53955078 C3.7412653 8.46867382 1.77822519 4.38893159 0 0 Z " fill="#9577F0" transform="translate(2432,1269)"/>
<path d="M0 0 C3.70416961 1.2347232 3.94549197 2.17103264 5.77734375 5.515625 C6.29103516 6.43730469 6.80472656 7.35898438 7.33398438 8.30859375 C7.86314453 9.27925781 8.39230469 10.24992187 8.9375 11.25 C12.00673772 16.83111694 14.94996527 22.06456807 19 27 C20.0301297 28.95312592 21.0047947 30.93601833 21.9375 32.9375 C25.50405539 40.3409414 29.67009309 47.34820124 33.88183594 54.39892578 C37.72265765 60.83060412 41.48719408 67.29900125 45.1875 73.8125 C49.10001069 80.69060886 53.05585515 87.53909081 57.07983398 94.35253906 C60.65729143 100.41048904 64.20670037 106.48451325 67.75 112.5625 C68.33845703 113.57135254 68.92691406 114.58020508 69.53320312 115.61962891 C72.60198159 120.88193564 75.66679411 126.14651157 78.7265625 131.4140625 C79.33395264 132.45844482 79.94134277 133.50282715 80.56713867 134.57885742 C81.75869283 136.62775129 82.94899016 138.67737667 84.13793945 140.7277832 C86.59260757 144.94589673 89.05837128 149.14421658 91.69140625 153.25390625 C92.07828613 153.85952393 92.46516602 154.4651416 92.86376953 155.08911133 C93.84317706 156.60409756 94.84058459 158.10740845 95.83984375 159.609375 C97.19444622 162.40067706 96.88243918 163.14759531 96 166 C89.11397436 154.41711711 82.28534059 142.8034542 75.5625 131.125 C61.02461011 105.87111067 61.02461011 105.87111067 46.08129883 80.85595703 C43.09075767 75.91655399 40.29170222 70.89771897 37.54492188 65.8190918 C34.95650135 61.0958788 32.22620255 56.45711248 29.5 51.8125 C28.26820738 49.707044 27.03643722 47.60157485 25.8046875 45.49609375 C24.86447754 43.89096924 24.86447754 43.89096924 23.90527344 42.25341797 C9.5547951 17.74874418 9.5547951 17.74874418 3.125 6.5625 C2.50882813 5.49128906 1.89265625 4.42007812 1.2578125 3.31640625 C0 1 0 1 0 0 Z " fill="#9576F0" transform="translate(2463,1274)"/>
<path d="M0 0 C3.05185208 2.83427629 5.13081497 5.61557061 7.1796875 9.234375 C7.77120605 10.27053955 8.36272461 11.3067041 8.97216797 12.37426758 C9.60010254 13.48825928 10.22803711 14.60225098 10.875 15.75 C11.54366823 16.92450833 12.21311468 18.09857392 12.88330078 19.2722168 C13.91474356 21.07874099 14.94570716 22.88552036 15.97433472 24.69364929 C19.23410056 30.42362718 22.54751375 36.12159711 25.875 41.8125 C26.44081787 42.78171387 27.00663574 43.75092773 27.58959961 44.74951172 C30.76262217 50.18202377 33.94355168 55.60986779 37.12890625 61.03515625 C38.5651786 63.48172714 40.00135708 65.92835313 41.4375 68.375 C41.79615143 68.9858847 42.15480286 69.59676941 42.52432251 70.22616577 C47.57775775 78.83595872 52.58711699 87.46978315 57.5625 96.125 C62.74824047 105.14304827 68.00214078 114.11752417 73.3125 123.0625 C73.98031494 124.18793213 74.64812988 125.31336426 75.33618164 126.47290039 C78.29445708 131.45458182 81.25820448 136.43290345 84.23046875 141.40625 C85.1537279 142.95828452 86.07691156 144.51036395 87 146.0625 C87.62322144 147.0980603 87.62322144 147.0980603 88.2590332 148.15454102 C91 152.77358876 91 152.77358876 91 155 C87.03973566 153.67991189 86.67225462 152.16003835 84.6640625 148.55078125 C84.01888672 147.40416016 83.37371094 146.25753906 82.70898438 145.07617188 C82.36955811 144.46314209 82.03013184 143.8501123 81.68041992 143.21850586 C80.25235872 140.63953898 78.80471312 138.07176961 77.35772705 135.50338745 C76.62233166 134.19788822 75.88792119 132.8918337 75.15447998 131.5852356 C72.01939267 126.00673047 68.78046831 120.49423992 65.5 115 C60.57177132 106.71986805 55.7652776 98.3744811 51 90 C45.7019552 80.69015001 40.33344927 71.42749742 34.85888672 62.2199707 C30.07937656 54.16968977 25.41531438 46.05503219 20.75927734 37.93286133 C17.47121542 32.21696142 14.13684388 26.53485241 10.71484375 20.8984375 C10.36502441 20.32122452 10.01520508 19.74401154 9.65478516 19.14930725 C7.96933225 16.37068529 6.27588278 13.59744089 4.57080078 10.83081055 C3.97122559 9.84636963 3.37165039 8.86192871 2.75390625 7.84765625 C2.22095947 6.98148682 1.6880127 6.11531738 1.13891602 5.22290039 C0 3 0 3 0 0 Z " fill="#9579F0" transform="translate(2457,1285)"/>
<path d="M0 0 C1 3 1 3 -0.0390625 5.3828125 C-0.56242187 6.28773437 -1.08578125 7.19265625 -1.625 8.125 C-2.181875 9.10082031 -2.73875 10.07664062 -3.3125 11.08203125 C-3.869375 12.04496094 -4.42625 13.00789063 -5 14 C-5.87744409 15.60283111 -6.75267514 17.20687706 -7.625 18.8125 C-9.58280244 22.33277939 -11.72990567 25.67052831 -14 29 C-16.17757191 32.54530303 -18.20460764 36.1551652 -20.1875 39.8125 C-20.71730469 40.78832031 -21.24710938 41.76414062 -21.79296875 42.76953125 C-22.19128906 43.50558594 -22.58960938 44.24164062 -23 45 C-23.66 45 -24.32 45 -25 45 C-25.12375 45.7425 -25.2475 46.485 -25.375 47.25 C-25.95486701 49.80141485 -26.73708739 51.7267573 -28 54 C-28.66 54 -29.32 54 -30 54 C-31.07525194 56.65228812 -32.09456151 59.28368454 -33 62 C-33.66 62 -34.32 62 -35 62 C-35.226875 62.78375 -35.45375 63.5675 -35.6875 64.375 C-37.41370018 69.14260051 -39.62799011 73.52350013 -42 78 C-42.31308105 78.59570801 -42.62616211 79.19141602 -42.94873047 79.80517578 C-43.97056572 81.73345402 -45.01344418 83.64891283 -46.0625 85.5625 C-46.55484131 86.49255859 -46.55484131 86.49255859 -47.05712891 87.44140625 C-49.51931287 91.84703148 -49.51931287 91.84703148 -52.12280273 92.67553711 C-52.74227783 92.78260986 -53.36175293 92.88968262 -54 93 C-50.67898524 86.10059184 -46.8849089 79.53290496 -43 72.9375 C-41.77057886 70.84259724 -40.54140573 68.7475489 -39.3125 66.65234375 C-38.4457666 65.17592407 -38.4457666 65.17592407 -37.56152344 63.66967773 C-35.68383166 60.45945892 -33.83669725 57.23384301 -32 54 C-31.2868146 52.75109857 -30.5732617 51.50240694 -29.859375 50.25390625 C-29.51132813 49.64482422 -29.16328125 49.03574219 -28.8046875 48.40820312 C-27.203125 45.60546875 -25.6015625 42.80273438 -24 40 C-23.34 40 -22.68 40 -22 40 C-21.731875 39.13375 -21.46375 38.2675 -21.1875 37.375 C-20.02888013 34.08208036 -18.61790161 31.08872125 -17 28 C-16.34 28 -15.68 28 -15 28 C-14.731875 27.13375 -14.46375 26.2675 -14.1875 25.375 C-13.02888013 22.08208036 -11.61790161 19.08872125 -10 16 C-9.34 16 -8.68 16 -8 16 C-7.79375 15.030625 -7.5875 14.06125 -7.375 13.0625 C-5.98814529 8.08613899 -2.98894299 4.14504358 0 0 Z " fill="#997DEC" transform="translate(1839,1347)"/>
<path d="M0 0 C0.58422852 1.90600586 0.58422852 1.90600586 1 4 C-0.34765625 5.50390625 -0.34765625 5.50390625 -2 7 C-2.84575531 8.89992043 -2.84575531 8.89992043 -3.4375 10.9375 C-4.69554908 14.56674107 -6.28082482 16.28082482 -9 19 C-9.85451343 21.07291058 -10.54980768 23.14500833 -11.19140625 25.29296875 C-11.45824219 25.85628906 -11.72507812 26.41960937 -12 27 C-12.99 27.33 -13.98 27.66 -15 28 C-15.91289284 30.07014307 -15.91289284 30.07014307 -16.5 32.5 C-17.15625 34.96875 -17.15625 34.96875 -18 37 C-19.485 37.495 -19.485 37.495 -21 38 C-21.69437747 39.99054876 -22.35610218 41.99255385 -23 44 C-24.31431695 46.01254782 -25.64721885 48.01310269 -27 50 C-27.67966676 51.66140763 -28.34938905 53.32700041 -29 55 C-29.66 55.66 -30.32 56.32 -31 57 C-31.70710678 58.64991582 -32.37943989 60.31562256 -33 62 C-33.66 62 -34.32 62 -35 62 C-35.268125 62.86625 -35.53625 63.7325 -35.8125 64.625 C-36.97111987 67.91791964 -38.38209839 70.91127875 -40 74 C-40.66 74 -41.32 74 -42 74 C-42.33 74.99 -42.66 75.98 -43 77 C-43.33 76.01 -43.66 75.02 -44 74 C-42.9609375 72.0546875 -42.9609375 72.0546875 -41.375 69.875 C-38.70758536 66.07501719 -36.37710208 62.22555026 -34.17578125 58.140625 C-32.84628509 55.72014693 -31.42197981 53.36740653 -30 51 C-28.92560881 49.17089895 -27.85415691 47.34006922 -26.78515625 45.5078125 C-26.18123047 44.47269531 -25.57730469 43.43757813 -24.95507812 42.37109375 C-24.01825195 40.76427734 -24.01825195 40.76427734 -23.0625 39.125 C-22.44181641 38.06152344 -21.82113281 36.99804688 -21.18164062 35.90234375 C-17.53958635 29.66332565 -17.53958635 29.66332565 -13.94921875 23.39453125 C-11.27960912 18.74545156 -8.51447342 14.1556263 -5.75 9.5625 C-5.19570312 8.64017578 -4.64140625 7.71785156 -4.0703125 6.76757812 C-2.71421511 4.51131265 -1.35742891 2.25546455 0 0 Z " fill="#987BED" transform="translate(1884,1270)"/>
<path d="M0 0 C0.495 0.99 0.495 0.99 1 2 C-0.04467773 4.20800781 -0.04467773 4.20800781 -1.68359375 6.953125 C-2.2780127 7.95867432 -2.87243164 8.96422363 -3.48486328 10.00024414 C-4.1292334 11.07266357 -4.77360352 12.14508301 -5.4375 13.25 C-6.73611404 15.44114734 -8.03429329 17.63255242 -9.33203125 19.82421875 C-9.96447754 20.88688965 -10.59692383 21.94956055 -11.24853516 23.04443359 C-13.41232284 26.69578761 -15.53055162 30.37105445 -17.625 34.0625 C-18.19476562 35.06410156 -18.76453125 36.06570313 -19.3515625 37.09765625 C-19.89554688 38.05542969 -20.43953125 39.01320313 -21 40 C-22.33218441 42.33399183 -23.66603822 44.66702317 -25 47 C-25.66 47 -26.32 47 -27 47 C-27.11859375 47.73605469 -27.2371875 48.47210937 -27.359375 49.23046875 C-28.37563264 53.62392403 -30.71260921 57.15157649 -33 61 C-33.67869141 62.16789062 -33.67869141 62.16789062 -34.37109375 63.359375 C-36.87869829 67.55607815 -36.87869829 67.55607815 -38 69 C-38.66 69 -39.32 69 -40 69 C-38.60966128 65.32790921 -36.95933171 61.93649918 -35.0625 58.5 C-34.55847656 57.5821875 -34.05445313 56.664375 -33.53515625 55.71875 C-32.0664382 53.11766155 -30.53855059 50.56018074 -29 48 C-28.09692292 46.39990005 -27.20071841 44.79589551 -26.3125 43.1875 C-25.87550781 42.39730469 -25.43851563 41.60710937 -24.98828125 40.79296875 C-24.49908203 39.90544922 -24.49908203 39.90544922 -24 39 C-23.34 39 -22.68 39 -22 39 C-21.01 36.03 -20.02 33.06 -19 30 C-18.34 30 -17.68 30 -17 30 C-16.5968457 28.93108521 -16.5968457 28.93108521 -16.18554688 27.84057617 C-14.06883416 22.76892204 -11.21128253 18.08518064 -8.5 13.3125 C-7.90574219 12.25482422 -7.31148437 11.19714844 -6.69921875 10.10742188 C-6.12816406 9.09873047 -5.55710937 8.09003906 -4.96875 7.05078125 C-4.44732422 6.12950439 -3.92589844 5.20822754 -3.38867188 4.2590332 C-2 2 -2 2 0 0 Z " fill="#977DEC" transform="translate(1846,1371)"/>
<path d="M0 0 C0.66 0.33 1.32 0.66 2 1 C-5.93948702 14.81917804 -13.90952044 28.61642702 -22.04956055 42.31884766 C-22.55656494 43.17269043 -23.06356934 44.0265332 -23.5859375 44.90625 C-24.0298584 45.65197266 -24.4737793 46.39769531 -24.93115234 47.16601562 C-25.66236768 48.42067291 -26.3505632 49.70112641 -27 51 C-27.99 50.67 -28.98 50.34 -30 50 C-24.67137686 40.30644087 -19.27795399 30.66391175 -13.62939453 21.15258789 C-11.60484504 17.7407281 -9.60461739 14.31983952 -7.6640625 10.859375 C-7.29812988 10.20807617 -6.93219727 9.55677734 -6.55517578 8.88574219 C-5.56365975 7.1137686 -4.57848471 5.33825111 -3.59375 3.5625 C-2 1 -2 1 0 0 Z " fill="#8464EA" transform="translate(2057,1389)"/>
<path d="M0 0 C1 3 1 3 0.21484375 4.91015625 C-0.41744141 5.97556641 -0.41744141 5.97556641 -1.0625 7.0625 C-1.53042969 7.86171875 -1.99835938 8.6609375 -2.48046875 9.484375 C-2.98191406 10.31453125 -3.48335937 11.1446875 -4 12 C-4.47050781 12.78890625 -4.94101563 13.5778125 -5.42578125 14.390625 C-6.4088971 16.03356793 -7.39601259 17.67412289 -8.38671875 19.3125 C-10.7593314 23.26493947 -13.07158003 27.25198493 -15.38671875 31.23828125 C-16.41172279 32.99294919 -17.44586728 34.742334 -18.4921875 36.484375 C-20.17087796 39.28509173 -21.80378298 42.11033269 -23.4375 44.9375 C-25.83545177 49.05770951 -28.28128849 53.08505542 -31 57 C-31.33 56.34 -31.66 55.68 -32 55 C-31.30664062 53.29516602 -31.30664062 53.29516602 -30.15625 51.25390625 C-29.73738525 50.50407471 -29.31852051 49.75424316 -28.88696289 48.98168945 C-28.42926514 48.18335693 -27.97156738 47.38502441 -27.5 46.5625 C-27.04165771 45.74934326 -26.58331543 44.93618652 -26.11108398 44.09838867 C-23.04586057 38.70275934 -19.79277221 33.46071004 -16.3984375 28.265625 C-14.55074396 25.27215501 -13.27048663 22.27651816 -12 19 C-11.34711373 17.65986503 -10.68774405 16.32258472 -10 15 C-9.34 15 -8.68 15 -8 15 C-7.7525 14.34 -7.505 13.68 -7.25 13 C-3.14285714 3.14285714 -3.14285714 3.14285714 0 0 Z " fill="#9378EC" transform="translate(1892,1280)"/>
<path d="M0 0 C0.33 0.66 0.66 1.32 1 2 C0.06553465 4.03144641 -0.93224776 6.03533587 -2 8 C-2.66 8 -3.32 8 -4 8 C-4.28875 9.155 -4.5775 10.31 -4.875 11.5 C-7.246519 18.68263887 -11.70939747 24.80412799 -15.79150391 31.10546875 C-17.91447446 34.43360037 -19.87817099 37.85472216 -21.84375 41.27734375 C-23 43 -23 43 -25 44 C-23.63465043 39.18111918 -21.47659824 35.35618829 -18.6875 31.25 C-15.53598605 26.48994633 -12.77681846 21.75711782 -10.32421875 16.59375 C-3.78461538 3.78461538 -3.78461538 3.78461538 0 0 Z " fill="#9778ED" transform="translate(1986,1096)"/>
<path d="M0 0 C0.66 0 1.32 0 2 0 C0.64574082 3.62069472 -0.98265871 6.84621932 -2.96875 10.16015625 C-3.53980469 11.11857422 -4.11085938 12.07699219 -4.69921875 13.06445312 C-5.29347656 14.05380859 -5.88773438 15.04316406 -6.5 16.0625 C-7.67827946 18.03183692 -8.85540927 20.00186226 -10.03125 21.97265625 C-10.81338867 23.27601929 -10.81338867 23.27601929 -11.61132812 24.60571289 C-12.82956001 26.70613485 -13.93846768 28.81757336 -15 31 C-15.82236841 32.56829873 -16.65600173 34.13073489 -17.5 35.6875 C-17.9228125 36.47511719 -18.345625 37.26273438 -18.78125 38.07421875 C-20 40 -20 40 -22 41 C-20.6553486 35.18077417 -18.32052106 30.84900618 -15.0625 25.875 C-14.17811311 24.49757063 -13.29399217 23.11997047 -12.41015625 21.7421875 C-11.99338623 21.09677002 -11.57661621 20.45135254 -11.1472168 19.78637695 C-8.99462495 16.43449048 -7.10158604 13.24292314 -5.5625 9.5625 C-3.97816043 5.95020579 -2.36960943 3.13399957 0 0 Z " fill="#9479ED" transform="translate(1918,1235)"/>
<path d="M0 0 C0 3.63306931 -1.07932067 4.97123644 -3 8 C-3.6734491 9.3299205 -4.33912827 10.6637849 -5 12 C-8.62960725 18.9421705 -12.5227114 25.56985148 -17 32 C-17.33 31.34 -17.66 30.68 -18 30 C-17.03463844 27.71551085 -16.01771324 25.56883823 -14.875 23.375 C-14.55168701 22.74198975 -14.22837402 22.10897949 -13.89526367 21.45678711 C-11.8160439 17.43387044 -9.6080265 13.53988256 -7.125 9.75 C-5.93292446 7.89566028 -4.87227911 5.99503837 -3.8125 4.0625 C-2 1 -2 1 0 0 Z " fill="#9678ED" transform="translate(1905,1217)"/>
<path d="M0 0 C0 4.21954667 -2.11828296 7.0772474 -4.1875 10.625 C-5.01865176 12.06876722 -5.84938372 13.5127762 -6.6796875 14.95703125 C-7.28248535 16.00044678 -7.28248535 16.00044678 -7.89746094 17.06494141 C-9.62611507 20.09889018 -11.23890934 23.19388833 -12.83203125 26.30078125 C-14.2611055 28.37986921 -15.92738529 29.58784113 -18 31 C-16.78065514 26.96678237 -15.44045073 23.45730521 -13 20 C-12.34 20 -11.68 20 -11 20 C-10.71125 19.071875 -10.4225 18.14375 -10.125 17.1875 C-9 14 -9 14 -7 11 C-6.30899447 9.00827818 -5.64097297 7.00838196 -5 5 C-4.67 4.34 -4.34 3.68 -4 3 C-3.34 3 -2.68 3 -2 3 C-2 2.34 -2 1.68 -2 1 C-1.34 0.67 -0.68 0.34 0 0 Z " fill="#987BEC" transform="translate(1818,1366)"/>
<path d="M0 0 C0.66 0.33 1.32 0.66 2 1 C-1.96 7.93 -5.92 14.86 -10 22 C-10.99 22 -11.98 22 -13 22 C-11.60966128 18.32790921 -9.95933171 14.93649918 -8.0625 11.5 C-7.55847656 10.5821875 -7.05445312 9.664375 -6.53515625 8.71875 C-5.77525391 7.37296875 -5.77525391 7.37296875 -5 6 C-4.48308594 5.0821875 -3.96617187 4.164375 -3.43359375 3.21875 C-2 1 -2 1 0 0 Z " fill="#8C62EF" transform="translate(2262,985)"/>
<path d="M0 0 C0.66 0 1.32 0 2 0 C1.35669918 3.29130653 0.14375858 5.6624194 -1.625 8.5 C-6.58313696 16.56889116 -11.32165387 24.76611082 -16 33 C-16.33 32.34 -16.66 31.68 -17 31 C-14.6 24.6 -14.6 24.6 -12 22 C-11.69964844 21.23429687 -11.39929687 20.46859375 -11.08984375 19.6796875 C-9.91164091 16.78274432 -8.42418276 14.63126539 -6.5625 12.125 C-3.73149562 8.18518557 -1.67807938 4.54068539 0 0 Z " fill="#957BEC" transform="translate(1856,1341)"/>
<path d="M0 0 C0.33 0.66 0.66 1.32 1 2 C-0.25811352 4.5343729 -1.57064257 6.93919522 -3 9.375 C-3.41137207 10.0880127 -3.82274414 10.80102539 -4.24658203 11.53564453 C-5.0885746 12.99307728 -5.93380254 14.44864558 -6.78222656 15.90234375 C-7.89038855 17.81119055 -8.97727444 19.72993368 -10.0546875 21.65625 C-10.65539063 22.7184375 -11.25609375 23.780625 -11.875 24.875 C-12.40867187 25.82117187 -12.94234375 26.76734375 -13.4921875 27.7421875 C-15 30 -15 30 -18 32 C-16.47520551 26.41800379 -13.73557869 21.9744001 -10.6875 17.125 C-10.21376953 16.36058594 -9.74003906 15.59617187 -9.25195312 14.80859375 C-7.84107233 12.5349719 -6.42161927 10.2669197 -5 8 C-4.04799983 6.47667326 -3.0961661 4.95324248 -2.14453125 3.4296875 C-1.42974599 2.28642176 -0.71492562 1.14317797 0 0 Z " fill="#9378ED" transform="translate(1963,1170)"/>
<path d="M0 0 C0.66 0.33 1.32 0.66 2 1 C-0.24257772 5.75426478 -2.69007703 10.15649528 -5.5625 14.5625 C-7.54767074 17.6098003 -9.32889076 20.47549061 -10.625 23.875 C-12.18520949 27.42093065 -14.12915329 29.43951509 -17 32 C-16.34 30.02 -15.68 28.04 -15 26 C-14.34 26 -13.68 26 -13 26 C-12.89115479 25.27981689 -12.78230957 24.55963379 -12.67016602 23.81762695 C-11.94674537 20.77609775 -10.84867785 18.61404725 -9.27734375 15.91796875 C-8.73916016 14.98662109 -8.20097656 14.05527344 -7.64648438 13.09570312 C-6.80053711 11.65614258 -6.80053711 11.65614258 -5.9375 10.1875 C-5.36966797 9.20845703 -4.80183594 8.22941406 -4.21679688 7.22070312 C-2.81745173 4.81006652 -1.41170071 2.4034149 0 0 Z " fill="#967CED" transform="translate(1888,1297)"/>
<path d="M0 0 C0.66 0.33 1.32 0.66 2 1 C-2.4359673 11.48501362 -2.4359673 11.48501362 -4.4375 13.3125 C-6.80287838 15.86710865 -7.72154738 18.77342909 -9 22 C-9.66 22 -10.32 22 -11 22 C-11.99 24.97 -12.98 27.94 -14 31 C-14.66 31 -15.32 31 -16 31 C-14.87830241 26.00334712 -13.3118915 22.7377203 -10.22265625 18.67578125 C-8.47102372 16.27498139 -7.28438313 13.67579819 -6 11 C-4.71258788 8.64107717 -3.40116945 6.2966292 -2.0859375 3.953125 C-1.36193382 2.65096011 -0.66630544 1.33261089 0 0 Z " fill="#977AED" transform="translate(1908,1228)"/>
<path d="M0 0 C0.33 0.99 0.66 1.98 1 3 C-0.13831121 4.67398708 -1.29009646 6.34096651 -2.51953125 7.94921875 C-5.03044706 11.42740028 -6.98547789 15.21955637 -9 19 C-9.625 17.1875 -9.625 17.1875 -10 15 C-9.34 14.01 -8.68 13.02 -8 12 C-7.34 12 -6.68 12 -6 12 C-5.938125 11.13375 -5.87625 10.2675 -5.8125 9.375 C-4.76877344 5.03952044 -3.00721829 3.23854277 0 0 Z M-12 19 C-11.34 19.33 -10.68 19.66 -10 20 C-10.61754259 21.31602523 -11.24428742 22.62773556 -11.875 23.9375 C-12.22304687 24.66839844 -12.57109375 25.39929687 -12.9296875 26.15234375 C-14 28 -14 28 -16 29 C-15.5205537 24.78087253 -14.83374881 22.20336822 -12 19 Z " fill="#977CED" transform="translate(1820,1405)"/>
<path d="M0 0 C0.33 0.99 0.66 1.98 1 3 C0.04422943 4.36538653 -0.96352976 5.69481525 -2 7 C-2.29519531 7.74636719 -2.59039063 8.49273438 -2.89453125 9.26171875 C-5.86357671 16.61613877 -10.48232832 23.49455278 -15 30 C-16 27 -16 27 -14.75244141 24.28857422 C-14.12515137 23.2213916 -13.49786133 22.15420898 -12.8515625 21.0546875 C-12.51957855 20.48420685 -12.1875946 19.9137262 -11.84555054 19.32595825 C-10.78149296 17.50323669 -9.70331508 15.68931554 -8.625 13.875 C-7.90534947 12.64505771 -7.18658824 11.41459463 -6.46875 10.18359375 C-1.21995502 1.21995502 -1.21995502 1.21995502 0 0 Z " fill="#967BEC" transform="translate(1863,1341)"/>
<path d="M0 0 C0.60546875 1.82421875 0.60546875 1.82421875 1 4 C-0.6875 6.8125 -0.6875 6.8125 -3 10 C-3.9541299 11.6856295 -4.90815919 13.37131809 -5.859375 15.05859375 C-11.99145299 25.4957265 -11.99145299 25.4957265 -15 27 C-14.34 25.02 -13.68 23.04 -13 21 C-12.34 21 -11.68 21 -11 21 C-10.64808594 19.75863281 -10.64808594 19.75863281 -10.2890625 18.4921875 C-8.76252297 14.35665314 -6.69028827 10.85840234 -4.375 7.125 C-3.95476562 6.43664063 -3.53453125 5.74828125 -3.1015625 5.0390625 C-2.07307528 3.35608342 -1.037279 1.67757468 0 0 Z " fill="#9479ED" transform="translate(1916,1250)"/>
<path d="M0 0 C0.66796875 1.69921875 0.66796875 1.69921875 1 4 C-0.07421875 6.33203125 -0.07421875 6.33203125 -1.6875 8.8125 C-2.24050781 9.68261719 -2.79351563 10.55273438 -3.36328125 11.44921875 C-3.90339844 12.29097656 -4.44351562 13.13273437 -5 14 C-5.80201124 15.368992 -6.59540553 16.74311955 -7.375 18.125 C-7.91125 19.07375 -8.4475 20.0225 -9 21 C-9.66 21 -10.32 21 -11 21 C-11.33 21.66 -11.66 22.32 -12 23 C-11.4445349 19.10488671 -10.35322214 16.68124737 -8.0625 13.5 C-5.85903484 10.42489384 -4.29743356 7.56010754 -3 4 C-2.34 4 -1.68 4 -1 4 C-0.67 2.68 -0.34 1.36 0 0 Z " fill="#9779ED" transform="translate(1933,1186)"/>
<path d="M0 0 C0.66 0.66 1.32 1.32 2 2 C-2 8.66666667 -6 15.33333333 -10 22 C-11 19 -11 19 -9.453125 15.3125 C-8.72909423 13.86976221 -7.99424422 12.43241524 -7.25 11 C-6.70859375 9.91332031 -6.70859375 9.91332031 -6.15625 8.8046875 C-4.40314335 5.36199256 -2.85926473 2.64935435 0 0 Z " fill="#9577ED" transform="translate(1917,1195)"/>
<path d="M0 0 C1.16263634 3.48790902 0.59012585 4.76026216 -0.8984375 8.015625 C-2.89435623 11.61110981 -5.43118304 14.79937046 -8 18 C-9 15 -9 15 -8.28735352 13.2824707 C-7.90506592 12.66976318 -7.52277832 12.05705566 -7.12890625 11.42578125 C-6.71962891 10.75869141 -6.31035156 10.09160156 -5.88867188 9.40429688 C-5.45103516 8.71400391 -5.01339844 8.02371094 -4.5625 7.3125 C-4.12873047 6.61060547 -3.69496094 5.90871094 -3.24804688 5.18554688 C-2.17449413 3.45134628 -1.08841346 1.72491256 0 0 Z " fill="#9276ED" transform="translate(1980,1140)"/>
<path d="M0 0 C0.66796875 1.73046875 0.66796875 1.73046875 1 4 C-0.07421875 6.11328125 -0.07421875 6.11328125 -1.6875 8.3125 C-3.69505112 11.1286481 -5.55451462 13.88841011 -7.1875 16.9375 C-9 20 -9 20 -12 22 C-11.71769531 21.43796875 -11.43539063 20.8759375 -11.14453125 20.296875 C-10.38357106 18.76976034 -9.63089911 17.23848658 -8.88671875 15.703125 C-6.22151041 10.25116787 -3.33022139 5.07327344 0 0 Z " fill="#9778ED" transform="translate(1960,1140)"/>
<path d="M0 0 C0.33 0.66 0.66 1.32 1 2 C-1.86750269 7.62030528 -5.45492929 12.78874606 -9 18 C-10 16 -10 16 -9.3984375 13.79296875 C-7.28758252 8.41915092 -5.44173534 4.72145393 -1 1 C-0.67 0.67 -0.34 0.34 0 0 Z " fill="#967AEC" transform="translate(1832,1342)"/>
<path d="M0 0 C0.33 0.66 0.66 1.32 1 2 C0.109375 3.76953125 0.109375 3.76953125 -1.25 5.8125 C-1.71921875 6.53050781 -2.1884375 7.24851562 -2.671875 7.98828125 C-3.11015625 8.65214844 -3.5484375 9.31601563 -4 10 C-4.495 10.825 -4.99 11.65 -5.5 12.5 C-7.61819857 16.03033095 -9.81103831 19.51323493 -12 23 C-12.33 22.34 -12.66 21.68 -13 21 C-10.95961502 16.25992197 -8.18456642 11.99701236 -5.375 7.6875 C-4.96765625 7.05521484 -4.5603125 6.42292969 -4.140625 5.77148438 C-1.1465853 1.1465853 -1.1465853 1.1465853 0 0 Z " fill="#9576ED" transform="translate(1954,1133)"/>
<path d="M0 0 C0.33 0.99 0.66 1.98 1 3 C-0.16011028 4.72359241 -1.33376939 6.440839 -2.59765625 8.08984375 C-3.9545948 9.93815281 -5.04223287 11.79442429 -6.125 13.8125 C-8 17 -8 17 -11 19 C-10.4752803 15.11707422 -9.70267485 13.70267485 -7 11 C-6.0585702 9.46454126 -5.16365136 7.89978226 -4.3125 6.3125 C-3.87550781 5.50425781 -3.43851563 4.69601562 -2.98828125 3.86328125 C-2.66214844 3.24839844 -2.33601563 2.63351562 -2 2 C-1.34 2 -0.68 2 0 2 C0 1.34 0 0.68 0 0 Z " fill="#977AED" transform="translate(1861,1292)"/>
<path d="M0 0 C0.60546875 1.8203125 0.60546875 1.8203125 1 4 C-0.6875 6.875 -0.6875 6.875 -3 10 C-3.70125 11.093125 -4.4025 12.18625 -5.125 13.3125 C-7 16 -7 16 -9 17 C-7.68925635 12.53817564 -5.92933989 9.00381243 -3.375 5.125 C-2.74335937 4.15820312 -2.11171875 3.19140625 -1.4609375 2.1953125 C-0.73777344 1.10863281 -0.73777344 1.10863281 0 0 Z " fill="#9478ED" transform="translate(1926,1233)"/>
<path d="M0 0 C0.66 0 1.32 0 2 0 C0.13485974 6.61277 -2.87773616 13.29588014 -8 18 C-7.39733215 13.49272353 -5.63400206 10.1412037 -3.4375 6.1875 C-2.9434668 5.2912793 -2.9434668 5.2912793 -2.43945312 4.37695312 C-1.63226733 2.91466002 -0.81695083 1.4568601 0 0 Z " fill="#977AED" transform="translate(1841,1324)"/>
<path d="M0 0 C0.33 0.99 0.66 1.98 1 3 C0.109375 4.61328125 0.109375 4.61328125 -1.25 6.3125 C-3.59799764 9.38648019 -5.36811422 12.47856227 -7 16 C-7.66 15.67 -8.32 15.34 -9 15 C-5.5875 6.7125 -5.5875 6.7125 -3 3 C-2.34 3 -1.68 3 -1 3 C-0.67 2.01 -0.34 1.02 0 0 Z " fill="#987CEC" transform="translate(1784,1424)"/>
<path d="M0 0 C0.33 0.66 0.66 1.32 1 2 C0.61328125 2.556875 0.2265625 3.11375 -0.171875 3.6875 C-3.55437052 8.64402809 -6.43553137 13.57516251 -9 19 C-10 16 -10 16 -8.92578125 13.4765625 C-3.52705983 3.93402827 -3.52705983 3.93402827 0 0 Z " fill="#967BEC" transform="translate(1838,1374)"/>
<path d="M0 0 C0.33 0.99 0.66 1.98 1 3 C0.109375 4.61328125 0.109375 4.61328125 -1.25 6.3125 C-3.59799764 9.38648019 -5.36811422 12.47856227 -7 16 C-7.33 16 -7.66 16 -8 16 C-8.36789096 11.70793875 -7.48155943 9.49256513 -5 6 C-4.01979625 4.9805881 -3.02196992 3.97753644 -2 3 C-1.34 2.01 -0.68 1.02 0 0 Z " fill="#9276ED" transform="translate(1928,1219)"/>
<path d="M0 0 C0.66 0.33 1.32 0.66 2 1 C0.38352204 3.817481 -1.24458448 6.62806499 -2.875 9.4375 C-3.33519531 10.23994141 -3.79539062 11.04238281 -4.26953125 11.86914062 C-4.71425781 12.63291016 -5.15898438 13.39667969 -5.6171875 14.18359375 C-6.02565918 14.89056396 -6.43413086 15.59753418 -6.85498047 16.32592773 C-8 18 -8 18 -10 19 C-8.62394084 14.23448987 -6.53221934 10.2751447 -3.875 6.125 C-3.50246094 5.53203125 -3.12992188 4.9390625 -2.74609375 4.328125 C-1.83635 2.8818657 -0.91896202 1.44041954 0 0 Z " fill="#9478ED" transform="translate(1939,1200)"/>
<path d="M0 0 C1 3 1 3 -0.4375 6.1875 C-1.2109375 7.5796875 -1.2109375 7.5796875 -2 9 C-2.66 9 -3.32 9 -4 9 C-4.0825 9.5775 -4.165 10.155 -4.25 10.75 C-5.20531013 13.6159304 -6.78469173 14.9990764 -9 17 C-7.51481201 12.95698825 -5.57122002 9.38853744 -3.375 5.6875 C-2.74335937 4.61886719 -2.11171875 3.55023437 -1.4609375 2.44921875 C-0.97882813 1.64097656 -0.49671875 0.83273437 0 0 Z " fill="#9475ED" transform="translate(2018,1041)"/>
<path d="M0 0 C0.66 0.33 1.32 0.66 2 1 C0.5140084 5.59306496 -1.85014682 8.43569245 -5 12 C-5.33 11.34 -5.66 10.68 -6 10 C-4.15885893 6.50818073 -2.18840439 3.28260659 0 0 Z " fill="#9474ED" transform="translate(2020,1018)"/>
<path d="M0 0 C0.75 1.625 0.75 1.625 1 4 C-2.136 9.712 -2.136 9.712 -6 11 C-4.74194623 6.49197399 -3.09592835 3.5087188 0 0 Z " fill="#977AED" transform="translate(1920,1209)"/>
<path d="M0 0 C1 3 1 3 0.109375 5.41015625 C-0.33921875 6.28542969 -0.7878125 7.16070313 -1.25 8.0625 C-1.68828125 8.94035156 -2.1265625 9.81820313 -2.578125 10.72265625 C-4 13 -4 13 -7 15 C-5.45454854 9.52067211 -2.84456788 4.88570819 0 0 Z " fill="#9677ED" transform="translate(1994,1081)"/>
<path d="M0 0 C0.66 0.66 1.32 1.32 2 2 C1.04801289 3.64951226 0.08820855 5.29451508 -0.875 6.9375 C-1.40867187 7.85402344 -1.94234375 8.77054688 -2.4921875 9.71484375 C-4 12 -4 12 -6 13 C-5.34215037 9.70319035 -4.10579427 7.15882078 -2.4375 4.25 C-1.98246094 3.45078125 -1.52742188 2.6515625 -1.05859375 1.828125 C-0.53458984 0.92320313 -0.53458984 0.92320313 0 0 Z " fill="#977BED" transform="translate(1849,1311)"/>
<path d="M0 0 C0.66 0.33 1.32 0.66 2 1 C1.21448343 2.31618998 0.4213763 3.62785228 -0.375 4.9375 C-0.81585937 5.66839844 -1.25671875 6.39929687 -1.7109375 7.15234375 C-3 9 -3 9 -5 10 C-3.84414715 6.08788267 -2.64465038 3.1254959 0 0 Z " fill="#987BED" transform="translate(1869,1278)"/>
<path d="M0 0 C0.65234375 1.765625 0.65234375 1.765625 1 4 C0.00390625 5.921875 0.00390625 5.921875 -1.4375 7.75 C-2.14712891 8.67039062 -2.14712891 8.67039062 -2.87109375 9.609375 C-3.24363281 10.06828125 -3.61617187 10.5271875 -4 11 C-5 8 -5 8 -4.00390625 5.95703125 C-3.52824219 5.24933594 -3.05257813 4.54164062 -2.5625 3.8125 C-2.08941406 3.09707031 -1.61632813 2.38164063 -1.12890625 1.64453125 C-0.75636719 1.10183594 -0.38382813 0.55914063 0 0 Z " fill="#967BED" transform="translate(1900,1277)"/>
<path d="M0 0 C0.33 0.66 0.66 1.32 1 2 C0.06553465 4.03144641 -0.93224776 6.03533587 -2 8 C-2.66 8 -3.32 8 -4 8 C-4.33 8.99 -4.66 9.98 -5 11 C-5.33 10.34 -5.66 9.68 -6 9 C-4.02 6.03 -2.04 3.06 0 0 Z " fill="#9879EE" transform="translate(2001,1070)"/>
<path d="M0 0 C1 3 1 3 0.29296875 4.7890625 C-0.07183594 5.39492187 -0.43664063 6.00078125 -0.8125 6.625 C-1.16957031 7.23601562 -1.52664063 7.84703125 -1.89453125 8.4765625 C-3 10 -3 10 -5 11 C-4.54917531 9.53932801 -4.08906463 8.08151968 -3.625 6.625 C-3.36976562 5.81289062 -3.11453125 5.00078125 -2.8515625 4.1640625 C-2 2 -2 2 0 0 Z " fill="#9276ED" transform="translate(1956,1170)"/>
<path d="M0 0 C1.32 0 2.64 0 4 0 C4 0.66 4 1.32 4 2 C2.36395804 3.37073786 0.69321939 4.70055256 -1 6 C-2.0173873 6.98230498 -3.02596117 7.97469597 -4 9 C-2.80100302 5.9168649 -1.52299523 2.93720508 0 0 Z " fill="#8B6CEF" transform="translate(2264,1096)"/>
<path d="M0 0 C0.33 0.66 0.66 1.32 1 2 C-0.93694542 5.80471422 -2.70921407 9.20283196 -6 12 C-5.36934243 8.78147169 -4.21979305 6.49198931 -2.4375 3.75 C-1.98246094 3.04359375 -1.52742188 2.3371875 -1.05859375 1.609375 C-0.53458984 0.81273437 -0.53458984 0.81273437 0 0 Z " fill="#9777EE" transform="translate(1992,1068)"/>
<path d="M0 0 C0.33 0.99 0.66 1.98 1 3 C-0.40445835 5.2636564 -2.1967913 7.0208685 -4 9 C-4.33 8.34 -4.66 7.68 -5 7 C-3.35 4.69 -1.7 2.38 0 0 Z " fill="#977AED" transform="translate(1875,1268)"/>
<path d="M0 0 C0.33 0.99 0.66 1.98 1 3 C0.00390625 4.82421875 0.00390625 4.82421875 -1.4375 6.6875 C-1.91058594 7.31011719 -2.38367187 7.93273438 -2.87109375 8.57421875 C-3.24363281 9.04472656 -3.61617187 9.51523438 -4 10 C-4.33 9.01 -4.66 8.02 -5 7 C-4.00390625 5.17578125 -4.00390625 5.17578125 -2.5625 3.3125 C-2.08941406 2.68988281 -1.61632813 2.06726562 -1.12890625 1.42578125 C-0.75636719 0.95527344 -0.38382813 0.48476562 0 0 Z " fill="#9677ED" transform="translate(1932,1170)"/>
<path d="M0 0 C1 3 1 3 -0.3125 6.125 C-2 9 -2 9 -4 10 C-3.52449439 8.51965236 -3.04448784 7.04074979 -2.5625 5.5625 C-2.29566406 4.73878906 -2.02882813 3.91507813 -1.75390625 3.06640625 C-1 1 -1 1 0 0 Z " fill="#997DEC" transform="translate(1799,1397)"/>
<path d="M0 0 C0.33 0.99 0.66 1.98 1 3 C0.00390625 4.82421875 0.00390625 4.82421875 -1.4375 6.6875 C-1.91058594 7.31011719 -2.38367187 7.93273438 -2.87109375 8.57421875 C-3.24363281 9.04472656 -3.61617187 9.51523438 -4 10 C-4.33 9.01 -4.66 8.02 -5 7 C-4.00390625 5.17578125 -4.00390625 5.17578125 -2.5625 3.3125 C-2.08941406 2.68988281 -1.61632813 2.06726562 -1.12890625 1.42578125 C-0.75636719 0.95527344 -0.38382813 0.48476562 0 0 Z " fill="#9678ED" transform="translate(1938,1160)"/>
<path d="M0 0 C0.33 0.99 0.66 1.98 1 3 C-0.9375 6.1875 -0.9375 6.1875 -3 9 C-3.75 7.3125 -3.75 7.3125 -4 5 C-2.0625 2.25 -2.0625 2.25 0 0 Z " fill="#9375ED" transform="translate(1962,1118)"/>
<path d="M0 0 C1.65 0 3.3 0 5 0 C4.67 0.99 4.34 1.98 4 3 C3.01 3.33 2.02 3.66 1 4 C0.67 2.68 0.34 1.36 0 0 Z " fill="#8C61EF" transform="translate(2263,935)"/>
</svg>
